<svg xmlns="http://www.w3.org/2000/svg"><symbol id="facebook" viewBox="0 0 106.2 105.9"><path d="M106.2 8.2v89.3c-.1 4.6-3.8 8.3-8.4 8.4H74.1V66H88l2.2-17.5H73.8s-.4-9.3 0-13.4 4.8-3.4 4.8-3.4h11.6V16.3H73.4c-12.9 0-16.9 15.9-16.9 15.9v16.6H43.4v16.8h13.1v40.3H8.4c-4.6-.1-8.3-3.8-8.4-8.4V8.2C0 3.5 3.7-.2 8.4-.3h89.3c4.7 0 8.5 3.8 8.5 8.5z"/></symbol><symbol id="logo-icon" viewBox="0 0 128 75.5"><path fill="#423957" d="M128 24.6a20.9 20.9 0 0 0-41-5.8h-8.8a14.5 14.5 0 0 0 .5-3.9 14.8 14.8 0 1 0-29.5 0 14.5 14.5 0 0 0 .5 3.9H41A20.9 20.9 0 1 0 6.4 39.6a20.9 20.9 0 1 0 33.9 22.9h47.4a20.9 20.9 0 1 0 33.9-22.9 20.9 20.9 0 0 0 6.4-15zm-60-5.8a7 7 0 1 1 3-5.8 7 7 0 0 1-3.1 5.7z"/><ellipse cx="112.1" cy="22.7" fill="#fff" rx="2.7" ry="1.7" transform="rotate(-49.6 112.118 22.786)"/><ellipse cx="113.5" cy="27.7" fill="#fff" rx="2.6" ry="1.6" transform="rotate(-33.7 113.449 27.692)"/><ellipse cx="107.7" cy="20.1" fill="#fff" rx="2.7" ry="1.7" transform="rotate(-69.3 107.727 20.15)"/><ellipse cx="102.6" cy="21.3" fill="#fff" rx="2.6" ry="1.6" transform="rotate(-85.2 102.628 21.315)"/><path fill="#fff" d="M103.9 31.5c-6.4-1.4-5-4.8-3-5.8a13 13 0 0 1 2.5-.8l1.9-.9a3 3 0 0 1 4.4 2.6c.1.8 0 1.8.1 2.1a13 13 0 0 1 .5 2.5c.3 2.4-2.1 5.2-6.4.3z"/></symbol><symbol id="menu-icon" viewBox="0 0 119.7 105.9"><path d="M112.1 19.5H7.6C3.4 19.5 0 15.1 0 9.7S3.4 0 7.6 0h104.5c4.2 0 7.6 4.4 7.6 9.7s-3.4 9.8-7.6 9.8zm0 43.2H7.6C3.4 62.7 0 58.3 0 53s3.4-9.7 7.6-9.7h104.5c4.2 0 7.6 4.4 7.6 9.7s-3.4 9.7-7.6 9.7zm0 43.2H7.6c-4.2 0-7.6-4.4-7.6-9.7s3.4-9.7 7.6-9.7h104.5c4.2 0 7.6 4.4 7.6 9.7s-3.4 9.7-7.6 9.7z"/></symbol><symbol id="twitter" viewBox="0 0 128 100"><path d="M116.1 23.4c.9 20.5-6.8 35.1-7.2 35.9-9.4 21.8-33.3 38.3-62.4 40.5-16.2 1.4-32.4-2.2-46.5-10.2 29.3.9 41.9-10.7 41.9-10.7-19 .6-23.6-18.8-23.6-18.8 5.5 1.9 12.8.9 12.8.9-22-6.9-22.3-25.7-22.3-25.7 3.4 2 7.3 2.9 11.2 2.5C-.2 20.6 13.2 3.9 13.2 3.9c16.3 25.6 51.1 27.6 51.1 27.6S60.2 12.2 78.8 2.9C84.2 0 90.4-.7 96.3.7c4.5 1.2 8.5 3.5 11.8 6.8C119.8 4.9 124.8.9 124.8.9c-1.7 8.5-9.6 14.1-9.6 14.1 8.7-.3 12.8-3.3 12.8-3.3-2.9 4.9-7 8.9-11.9 11.7z"/></symbol></svg>