<svg xmlns="http://www.w3.org/2000/svg" id="Layer_1" viewBox="0 0 256 150.7"><style>.st0{fill:#423957}.st1{fill:#fff}</style><path d="M255.3 49c0-23-18.7-41.7-41.7-41.7-19 0-35 12.7-40 30h-17.5c.7-2.5 1.1-5.1 1.1-7.9 0-16.3-13.2-29.5-29.5-29.5S98.2 13.2 98.2 29.5c0 2.7.4 5.4 1.1 7.9H81.7c-5-17.3-21.1-30-40-30C18.7 7.3 0 26 0 49c0 11.8 4.9 22.4 12.7 30C4.9 86.6 0 97.2 0 109c0 23 18.7 41.7 41.7 41.7 17.5 0 32.5-10.8 38.7-26.1H175c6.2 15.3 21.2 26.1 38.7 26.1 23 0 41.7-18.7 41.7-41.7 0-11.8-4.9-22.4-12.7-30 7.7-7.6 12.6-18.2 12.6-30zM135.5 37.3c-2.2 1.5-5 2.4-7.9 2.4-2.9 0-5.6-.9-7.9-2.4-3.7-2.5-6.1-6.7-6.1-11.5 0-7.7 6.2-14 13.9-14s13.9 6.3 13.9 14c.2 4.8-2.2 9-5.9 11.5z" class="st0"/><path d="M59.7 81.5v-2.2h1.8c.3 0 .6 0 .9-.1.3-.1.5-.2.7-.4.2-.2.3-.5.5-.8.1-.4.2-.8.2-1.4V56.4c0-.6-.1-1.1-.2-1.4-.1-.4-.3-.6-.5-.8-.2-.2-.4-.3-.7-.4-.3-.1-.5-.1-.9-.1h-1.8v-2.2h14.5v2.2h-1.8c-.3 0-.6 0-.8.1s-.5.2-.7.4-.3.4-.5.8c-.1.3-.2.8-.2 1.3V79H78c1 0 1.8-.3 2.3-.9.5-.6.9-1.5 1.2-2.7l.7-3.2h2.4l-.3 9.4H59.7zm57.1-15.1c0 2.3-.3 4.4-.9 6.3-.6 1.9-1.5 3.5-2.8 4.9-1.2 1.4-2.7 2.4-4.5 3.1-1.8.7-3.8 1.1-6.1 1.1-2.4 0-4.5-.4-6.3-1.1-1.8-.7-3.3-1.8-4.5-3.1-1.2-1.4-2.1-3-2.7-4.9-.6-1.9-.9-4-.9-6.4 0-2.3.3-4.4.9-6.3.6-1.9 1.5-3.5 2.7-4.9 1.2-1.3 2.7-2.4 4.5-3.1 1.8-.7 3.9-1.1 6.3-1.1 2.3 0 4.3.4 6.1 1.1 1.8.7 3.2 1.8 4.5 3.1 1.2 1.4 2.1 3 2.7 4.9.7 1.9 1 4.1 1 6.4zm-21.4 0c0 2 .1 3.8.4 5.4.3 1.6.7 2.9 1.3 4 .6 1.1 1.3 1.9 2.2 2.5.9.6 2 .9 3.3.9 1.3 0 2.4-.3 3.3-.9.9-.6 1.6-1.4 2.2-2.5.6-1.1 1-2.4 1.2-4 .3-1.6.4-3.4.4-5.4 0-2-.1-3.8-.4-5.4-.3-1.6-.7-2.9-1.2-4-.6-1.1-1.3-1.9-2.2-2.5-.9-.6-2-.9-3.3-.9-1.3 0-2.4.3-3.4.9-.9.6-1.7 1.4-2.2 2.5s-1 2.4-1.3 4c-.2 1.6-.3 3.4-.3 5.4zm29.4 15.1v-2.2h2c.3 0 .7 0 1-.1.3 0 .6-.1.8-.3.2-.2.4-.4.5-.8.1-.3.2-.8.2-1.4v-5.9l-7.8-14.9c-.2-.4-.4-.8-.6-1-.2-.3-.4-.5-.6-.7s-.5-.3-.8-.4c-.3-.1-.6-.1-1-.1h-.6v-2.2H132v2.2h-.7c-.8 0-1.5.2-1.9.5-.4.3-.6.8-.6 1.4 0 .4.1.7.2 1.2.1.4.3.8.4 1.2l3.1 6.2c.4.9.8 1.7 1.1 2.4.3.7.5 1.4.8 2 .3-.7.6-1.5 1-2.4s.8-1.8 1.3-2.7l2.4-5c.3-.6.5-1.1.6-1.6.1-.4.1-.7.1-1 0-.7-.2-1.3-.7-1.6-.5-.3-1.2-.5-2.1-.5h-1v-2.2h11v2.2h-.8c-.4 0-.7 0-.9.1-.3.1-.5.3-.7.5-.2.2-.5.6-.7 1s-.5 1-.9 1.6l-7.2 13.9v5.8c0 .6.1 1.1.2 1.4.1.3.3.6.5.8.2.2.5.3.7.3s.6.1.9.1h2.1v2.2h-15.4zm28.5-9.9l-1.2 3.6c-.1.3-.2.7-.3 1.2-.1.5-.2.9-.2 1.2 0 .3.1.5.2.7.1.2.3.4.4.5l.6.3c.2.1.5.1.7.1h1.8v2.2h-11v-2.2h.5c.4 0 .7 0 1-.1.3-.1.6-.2.9-.5.3-.2.5-.5.8-.9.2-.4.5-.9.7-1.5l9.1-24.8h5.8l8.8 24.8c.2.6.4 1.1.6 1.5.2.4.5.7.7.9.3.2.6.4.9.5.3.1.6.1.9.1h.8v2.2h-13.9v-2.2h1.6c.2 0 .4 0 .6-.1l.6-.3c.2-.1.3-.3.4-.5.1-.2.2-.5.2-.7 0-.3 0-.7-.1-1-.1-.3-.2-.6-.2-.8l-1.5-4.2h-10.2zm7.2-9.5c-.2-.5-.3-1-.5-1.5s-.3-1.1-.5-1.6-.3-1.1-.5-1.6c-.1-.5-.3-1.1-.4-1.6-.1.4-.3.9-.4 1.4-.2.5-.3 1-.5 1.6-.2.5-.4 1.1-.6 1.6-.2.5-.4 1-.5 1.5l-2.5 7.1h8.5l-2.1-6.9zM177 81.5v-2.2h1.8c.3 0 .6 0 .9-.1.3-.1.5-.2.7-.4.2-.2.3-.5.5-.8s.2-.8.2-1.4V56.4c0-.6-.1-1.1-.2-1.4s-.3-.6-.5-.8c-.2-.2-.4-.3-.7-.4-.3-.1-.5-.1-.9-.1H177v-2.2h14.5v2.2h-1.8c-.3 0-.6 0-.8.1-.3.1-.5.2-.7.4-.2.2-.3.4-.5.8-.1.3-.2.8-.2 1.3V79h7.8c1 0 1.8-.3 2.3-.9s.9-1.5 1.2-2.7l.7-3.2h2.4l-.3 9.4H177zM72.9 108h1.2c.2 0 .4 0 .6-.1.2 0 .3-.1.5-.2.1-.1.2-.3.3-.5.1-.2.1-.5.1-.9V91.9c0-.4 0-.7-.1-.9-.1-.2-.2-.4-.3-.5-.1-.1-.3-.2-.5-.3-.2 0-.4-.1-.6-.1h-1.2v-1.5h9.5c2.8 0 4.8.5 6.1 1.4 1.3.9 1.9 2.3 1.9 4 0 .8-.1 1.5-.3 2.1-.2.6-.5 1.1-.9 1.6-.4.4-.8.8-1.3 1.1s-1 .6-1.5.8l3.5 6c.2.4.5.8.7 1.1.2.3.5.5.7.7s.5.3.7.4.5.1.8.1h.1v1.6h-1c-.9 0-1.6 0-2.3-.1s-1.2-.2-1.7-.4-.9-.5-1.3-.8c-.4-.3-.7-.8-1-1.3l-3.5-6.5h-1.9v5.8c0 .4 0 .7.1.9.1.2.2.4.3.5.1.1.3.2.5.2s.4.1.6.1H83v1.6H72.9V108zm7.3-9.3h1.6c.7 0 1.2-.1 1.7-.3.5-.2.8-.5 1.1-.8.3-.4.5-.8.6-1.3.1-.5.2-1.2.2-1.9s-.1-1.4-.2-1.9-.3-.9-.6-1.3c-.3-.3-.7-.6-1.1-.7-.5-.1-1-.2-1.7-.2h-1.6v8.4zm20.8 9.1h5.9c.3 0 .5-.1.8-.2.2-.1.4-.3.5-.5s.3-.4.4-.7c.1-.3.2-.6.2-.9l.2-1.4h2l-.2 5.4H93.6V108h1.2c.2 0 .4 0 .6-.1.2 0 .3-.1.5-.2.1-.1.2-.3.3-.5.1-.2.1-.5.1-.9V92.1c0-.4 0-.8-.1-1l-.3-.6c-.1-.1-.3-.2-.5-.3-.2 0-.4-.1-.6-.1h-1.2v-1.5h16.3l.1 5.4h-2l-.1-1.4c-.1-.7-.3-1.3-.5-1.6s-.7-.6-1.3-.6H101v7.3h7v1.8h-7v8.3zm18.7 2c-1.3 0-2.4-.1-3.3-.4-.9-.2-1.6-.6-2.1-1s-.9-.8-1.1-1.3c-.2-.5-.3-1-.3-1.4 0-.5.1-.9.3-1.3.2-.3.4-.6.7-.8.3-.2.7-.4 1.1-.5.4-.1.8-.1 1.2-.1 0 .8.1 1.6.3 2.2.2.6.5 1.2.8 1.6.4.4.8.7 1.3 1s1 .3 1.6.3c.6 0 1.1-.1 1.5-.2.4-.2.8-.4 1.1-.7.3-.3.6-.6.7-1 .2-.4.2-.8.2-1.3s-.1-.9-.3-1.3-.5-.7-.9-1.1c-.4-.3-.9-.6-1.5-.9-.6-.3-1.3-.6-2.2-1-1-.4-1.9-.9-2.6-1.3-.7-.4-1.3-.9-1.7-1.4-.4-.5-.7-1.1-.9-1.7-.2-.6-.3-1.3-.3-2 0-.9.2-1.7.5-2.4.4-.7.9-1.3 1.5-1.9.6-.5 1.4-.9 2.3-1.2.9-.3 1.8-.4 2.9-.4 1.1 0 2 .1 2.8.3.8.2 1.4.4 1.9.7.5.3.9.7 1.1 1.1s.4.9.4 1.3c0 .3-.1.7-.2 1-.1.3-.4.6-.7.8-.3.2-.7.4-1.1.5-.5.1-1 .2-1.6.2 0-.4-.1-.9-.2-1.3-.1-.5-.3-.9-.5-1.3s-.6-.7-1-1c-.4-.3-.9-.4-1.4-.4-.4 0-.8.1-1.1.2-.4.1-.7.3-.9.5-.3.2-.5.5-.6.9-.2.3-.2.7-.2 1.2 0 .4.1.8.2 1.2.1.4.4.7.7 1.1.4.3.9.7 1.5 1 .6.3 1.4.7 2.4 1.1 1 .4 1.9.8 2.6 1.3.7.4 1.3.9 1.7 1.4.5.5.8 1 1 1.6s.3 1.2.3 2c0 .9-.2 1.8-.6 2.6s-.9 1.5-1.6 2-1.5 1-2.5 1.3c-.9.1-2 .2-3.2.2zm21.9-2.3c.7 0 1.4-.1 1.9-.3.6-.2 1.1-.4 1.5-.7l1.2-.9c.3-.3.6-.7.9-1 .2.1.3.3.4.5.1.2.1.5.1.7 0 .4-.1.8-.3 1.3s-.6.9-1.1 1.3c-.5.4-1.2.7-2 .9-.9.2-1.9.4-3.2.4-1.7 0-3.2-.3-4.5-.8-1.3-.5-2.3-1.2-3.2-2.2s-1.5-2.1-1.9-3.4c-.4-1.3-.6-2.8-.6-4.4 0-1.6.2-3 .6-4.4.4-1.3 1.1-2.5 1.9-3.4.8-.9 1.9-1.7 3.2-2.2s2.7-.8 4.4-.8c1.1 0 2.1.1 2.9.3.8.2 1.5.4 2.1.7.6.3 1 .7 1.2 1.1.3.4.4.9.4 1.3s-.1.7-.2 1c-.2.3-.4.6-.7.8-.3.2-.7.4-1.2.5-.5.1-1 .2-1.6.2 0-.5-.1-1-.2-1.5s-.3-.9-.5-1.3c-.3-.4-.6-.7-1-1-.4-.2-.9-.4-1.5-.4-.9 0-1.7.2-2.3.6s-1.2 1-1.5 1.7c-.4.8-.7 1.7-.8 2.8-.2 1.1-.3 2.4-.3 3.8s.1 2.7.3 3.7c.2 1.1.5 1.9 1 2.6.5.7 1.1 1.2 1.8 1.6.8.7 1.7.9 2.8.9zm28.6-17.4h-1.3c-.2 0-.4 0-.6.1s-.3.1-.5.3c-.1.1-.2.3-.3.6-.1.2-.1.6-.1 1v11.4c0 1-.1 1.9-.4 2.7-.3.8-.7 1.4-1.3 2-.6.5-1.4 1-2.3 1.3-.9.3-2 .4-3.3.4-1.3 0-2.4-.1-3.4-.4-1-.2-1.9-.6-2.6-1.2-.7-.5-1.2-1.2-1.6-2.1-.4-.8-.6-1.9-.6-3.1V91.9c0-.4 0-.7-.1-.9-.1-.2-.2-.4-.3-.5s-.3-.2-.5-.3-.4-.1-.6-.1h-1.3v-1.5h10.1v1.5H158c-.2 0-.4 0-.6.1-.2 0-.3.1-.5.3s-.2.3-.3.6c-.1.2-.1.6-.1 1v11.3c0 .8.1 1.5.3 2.1.2.6.5 1 .9 1.3.4.3.8.6 1.4.7.5.1 1.1.2 1.8.2.6 0 1.2-.1 1.8-.3s1-.4 1.3-.8c.4-.4.7-.8.9-1.3.2-.5.3-1.2.3-1.9V91.9c0-.4 0-.7-.1-.9-.1-.2-.2-.4-.3-.5s-.3-.2-.5-.3c-.2 0-.4-.1-.6-.1h-1.2v-1.5h7.7v1.5zm8.7 17.7h5.9c.3 0 .5-.1.8-.2s.4-.3.5-.5c.2-.2.3-.4.4-.7.1-.3.2-.6.2-.9l.2-1.4h2l-.2 5.4h-17.2V108h1.2c.2 0 .4 0 .6-.1.2 0 .3-.1.5-.2.1-.1.2-.3.3-.5.1-.2.1-.5.1-.9V92.1c0-.4 0-.8-.1-1l-.3-.6c-.1-.2-.3-.2-.5-.3s-.4-.1-.6-.1h-1.2v-1.5h16.3l.1 5.4h-2l-.1-1.4c-.1-.7-.3-1.3-.5-1.6-.3-.4-.7-.6-1.3-.6h-4.9v7.3h7v1.8h-7v8.3z" class="st1"/><ellipse cx="223.6" cy="47.6" class="st1" rx="5.5" ry="3.5" transform="rotate(-49.594 223.642 47.561)"/><ellipse cx="226.5" cy="57.6" class="st1" rx="5.1" ry="3.2" transform="rotate(-33.685 226.5 57.557)"/><ellipse cx="214.9" cy="42.4" class="st1" rx="5.5" ry="3.5" transform="rotate(-69.28 214.892 42.407)"/><ellipse cx="204.8" cy="44.7" class="st1" rx="5.1" ry="3.2" transform="rotate(-85.19 204.773 44.722) scale(1.00002)"/><path d="M207.4 65.1c-12.7-2.8-10-9.6-5.9-11.5 1.7-.8 3.8-1.3 4.9-1.5.8-.2 2.5-1.3 3.9-1.8 3.8-1.5 5.8 0 5.9.1.1.1 2.4 1.1 2.9 5.1.2 1.5 0 3.5.2 4.3.3 1.1.9 3.2 1.1 5 .2 4.4-4.5 10.1-13 .3z" class="st1"/></svg>