<?xml version="1.0" encoding="utf-8"?>
<!-- Generator: Adobe Illustrator 21.0.2, SVG Export Plug-In . SVG Version: 6.00 Build 0)  -->
<svg version="1.1" id="Layer_1" xmlns="http://www.w3.org/2000/svg" xmlns:xlink="http://www.w3.org/1999/xlink" x="0px" y="0px"
	 viewBox="0 0 1152 1152" style="enable-background:new 0 0 1152 1152;" xml:space="preserve">
<style type="text/css">
	.st0{fill:#423957;}
</style>
<path class="st0" d="M1152,456.7c0-103.9-84.2-188.2-188.2-188.2c-85.6,0-157.9,57.2-180.7,135.5h-79c3.2-11.3,4.8-23.2,4.8-35.5
	c0-73.4-59.5-133-133-133s-133,59.6-133,133c0,12.3,1.6,24.2,4.8,35.5h-79c-22.8-78.3-95.1-135.5-180.7-135.5
	C84.1,268.5-0.1,352.8-0.1,456.7c0,53.2,22.1,101.2,57.5,135.5C21.9,626.4-0.1,674.4-0.1,727.6c0,103.9,84.2,188.2,188.2,188.2
	c79,0,146.6-48.6,174.5-117.6h426.8c27.9,68.9,95.5,117.6,174.5,117.6c103.9,0,188.2-84.2,188.2-188.2c0-53.2-22.1-101.2-57.5-135.4
	C1129.9,557.9,1152,509.9,1152,456.7z M611.5,404.1c-10.1,6.9-22.4,11-35.5,11s-25.4-4.1-35.5-11c-16.5-11.3-27.4-30.4-27.4-51.9
	c0-34.8,28.2-63,62.9-63s62.9,28.2,62.9,63C638.9,373.7,628,392.8,611.5,404.1z"/>
</svg>
