<?xml version="1.0" encoding="utf-8"?>
<!-- Generator: Adobe Illustrator 21.0.2, SVG Export Plug-In . SVG Version: 6.00 Build 0)  -->
<svg version="1.1" id="Layer_1" xmlns="http://www.w3.org/2000/svg" xmlns:xlink="http://www.w3.org/1999/xlink" x="0px" y="0px"
	 viewBox="0 0 256 150.7" style="enable-background:new 0 0 256 150.7;" xml:space="preserve">
<style type="text/css">
	.st0{fill:#423957;}
	.st1{fill:#FFFFFF;}
</style>
<path class="st0" d="M255.3,49c0-23-18.7-41.7-41.7-41.7c-19,0-35,12.7-40,30h-17.5c0.7-2.5,1.1-5.1,1.1-7.9
	c0-16.3-13.2-29.5-29.5-29.5S98.2,13.2,98.2,29.5c0,2.7,0.4,5.4,1.1,7.9H81.7c-5-17.3-21.1-30-40-30C18.7,7.3,0,26,0,49
	c0,11.8,4.9,22.4,12.7,30C4.9,86.6,0,97.2,0,109c0,23,18.7,41.7,41.7,41.7c17.5,0,32.5-10.8,38.7-26.1h94.6
	c6.2,15.3,21.2,26.1,38.7,26.1c23,0,41.7-18.7,41.7-41.7c0-11.8-4.9-22.4-12.7-30C250.4,71.4,255.3,60.8,255.3,49z M135.5,37.3
	c-2.2,1.5-5,2.4-7.9,2.4c-2.9,0-5.6-0.9-7.9-2.4c-3.7-2.5-6.1-6.7-6.1-11.5c0-7.7,6.2-14,13.9-14s13.9,6.3,13.9,14
	C141.6,30.6,139.2,34.8,135.5,37.3z"/>
<g>
	<path class="st1" d="M59.7,81.5v-2.2h1.8c0.3,0,0.6,0,0.9-0.1c0.3-0.1,0.5-0.2,0.7-0.4c0.2-0.2,0.3-0.5,0.5-0.8
		c0.1-0.4,0.2-0.8,0.2-1.4V56.4c0-0.6-0.1-1.1-0.2-1.4c-0.1-0.4-0.3-0.6-0.5-0.8c-0.2-0.2-0.4-0.3-0.7-0.4c-0.3-0.1-0.5-0.1-0.9-0.1
		h-1.8v-2.2h14.5v2.2h-1.8c-0.3,0-0.6,0-0.8,0.1s-0.5,0.2-0.7,0.4s-0.3,0.4-0.5,0.8c-0.1,0.3-0.2,0.8-0.2,1.3v22.7h7.8
		c1,0,1.8-0.3,2.3-0.9c0.5-0.6,0.9-1.5,1.2-2.7l0.7-3.2h2.4l-0.3,9.4H59.7z"/>
	<path class="st1" d="M116.8,66.4c0,2.3-0.3,4.4-0.9,6.3c-0.6,1.9-1.5,3.5-2.8,4.9c-1.2,1.4-2.7,2.4-4.5,3.1
		c-1.8,0.7-3.8,1.1-6.1,1.1c-2.4,0-4.5-0.4-6.3-1.1c-1.8-0.7-3.3-1.8-4.5-3.1c-1.2-1.4-2.1-3-2.7-4.9c-0.6-1.9-0.9-4-0.9-6.4
		c0-2.3,0.3-4.4,0.9-6.3c0.6-1.9,1.5-3.5,2.7-4.9c1.2-1.3,2.7-2.4,4.5-3.1c1.8-0.7,3.9-1.1,6.3-1.1c2.3,0,4.3,0.4,6.1,1.1
		c1.8,0.7,3.2,1.8,4.5,3.1c1.2,1.4,2.1,3,2.7,4.9C116.5,61.9,116.8,64.1,116.8,66.4z M95.4,66.4c0,2,0.1,3.8,0.4,5.4
		c0.3,1.6,0.7,2.9,1.3,4c0.6,1.1,1.3,1.9,2.2,2.5c0.9,0.6,2,0.9,3.3,0.9c1.3,0,2.4-0.3,3.3-0.9c0.9-0.6,1.6-1.4,2.2-2.5
		c0.6-1.1,1-2.4,1.2-4c0.3-1.6,0.4-3.4,0.4-5.4c0-2-0.1-3.8-0.4-5.4c-0.3-1.6-0.7-2.9-1.2-4c-0.6-1.1-1.3-1.9-2.2-2.5
		c-0.9-0.6-2-0.9-3.3-0.9c-1.3,0-2.4,0.3-3.4,0.9c-0.9,0.6-1.7,1.4-2.2,2.5s-1,2.4-1.3,4C95.5,62.6,95.4,64.4,95.4,66.4z"/>
	<path class="st1" d="M124.8,81.5v-2.2h2c0.3,0,0.7,0,1-0.1c0.3,0,0.6-0.1,0.8-0.3c0.2-0.2,0.4-0.4,0.5-0.8c0.1-0.3,0.2-0.8,0.2-1.4
		v-5.9l-7.8-14.9c-0.2-0.4-0.4-0.8-0.6-1c-0.2-0.3-0.4-0.5-0.6-0.7s-0.5-0.3-0.8-0.4c-0.3-0.1-0.6-0.1-1-0.1h-0.6v-2.2H132v2.2h-0.7
		c-0.8,0-1.5,0.2-1.9,0.5c-0.4,0.3-0.6,0.8-0.6,1.4c0,0.4,0.1,0.7,0.2,1.2c0.1,0.4,0.3,0.8,0.4,1.2l3.1,6.2c0.4,0.9,0.8,1.7,1.1,2.4
		c0.3,0.7,0.5,1.4,0.8,2c0.3-0.7,0.6-1.5,1-2.4s0.8-1.8,1.3-2.7l2.4-5c0.3-0.6,0.5-1.1,0.6-1.6c0.1-0.4,0.1-0.7,0.1-1
		c0-0.7-0.2-1.3-0.7-1.6c-0.5-0.3-1.2-0.5-2.1-0.5h-1v-2.2h11v2.2h-0.8c-0.4,0-0.7,0-0.9,0.1c-0.3,0.1-0.5,0.3-0.7,0.5
		c-0.2,0.2-0.5,0.6-0.7,1s-0.5,1-0.9,1.6l-7.2,13.9v5.8c0,0.6,0.1,1.1,0.2,1.4c0.1,0.3,0.3,0.6,0.5,0.8c0.2,0.2,0.5,0.3,0.7,0.3
		s0.6,0.1,0.9,0.1h2.1v2.2H124.8z"/>
	<path class="st1" d="M153.3,71.6l-1.2,3.6c-0.1,0.3-0.2,0.7-0.3,1.2c-0.1,0.5-0.2,0.9-0.2,1.2c0,0.3,0.1,0.5,0.2,0.7
		c0.1,0.2,0.3,0.4,0.4,0.5c0.2,0.1,0.4,0.2,0.6,0.3c0.2,0.1,0.5,0.1,0.7,0.1h1.8v2.2h-11v-2.2h0.5c0.4,0,0.7,0,1-0.1
		c0.3-0.1,0.6-0.2,0.9-0.5c0.3-0.2,0.5-0.5,0.8-0.9c0.2-0.4,0.5-0.9,0.7-1.5l9.1-24.8h5.8l8.8,24.8c0.2,0.6,0.4,1.1,0.6,1.5
		c0.2,0.4,0.5,0.7,0.7,0.9c0.3,0.2,0.6,0.4,0.9,0.5c0.3,0.1,0.6,0.1,0.9,0.1h0.8v2.2h-13.9v-2.2h1.6c0.2,0,0.4,0,0.6-0.1
		c0.2-0.1,0.4-0.2,0.6-0.3c0.2-0.1,0.3-0.3,0.4-0.5c0.1-0.2,0.2-0.5,0.2-0.7c0-0.3,0-0.7-0.1-1c-0.1-0.3-0.2-0.6-0.2-0.8l-1.5-4.2
		H153.3z M160.5,62.1c-0.2-0.5-0.3-1-0.5-1.5c-0.2-0.5-0.3-1.1-0.5-1.6c-0.2-0.5-0.3-1.1-0.5-1.6c-0.1-0.5-0.3-1.1-0.4-1.6
		c-0.1,0.4-0.3,0.9-0.4,1.4c-0.2,0.5-0.3,1-0.5,1.6c-0.2,0.5-0.4,1.1-0.6,1.6c-0.2,0.5-0.4,1-0.5,1.5l-2.5,7.1h8.5L160.5,62.1z"/>
	<path class="st1" d="M177,81.5v-2.2h1.8c0.3,0,0.6,0,0.9-0.1c0.3-0.1,0.5-0.2,0.7-0.4c0.2-0.2,0.3-0.5,0.5-0.8s0.2-0.8,0.2-1.4
		V56.4c0-0.6-0.1-1.1-0.2-1.4s-0.3-0.6-0.5-0.8c-0.2-0.2-0.4-0.3-0.7-0.4c-0.3-0.1-0.5-0.1-0.9-0.1H177v-2.2h14.5v2.2h-1.8
		c-0.3,0-0.6,0-0.8,0.1c-0.3,0.1-0.5,0.2-0.7,0.4c-0.2,0.2-0.3,0.4-0.5,0.8c-0.1,0.3-0.2,0.8-0.2,1.3v22.7h7.8c1,0,1.8-0.3,2.3-0.9
		s0.9-1.5,1.2-2.7l0.7-3.2h2.4l-0.3,9.4H177z"/>
	<path class="st1" d="M72.9,108h1.2c0.2,0,0.4,0,0.6-0.1c0.2,0,0.3-0.1,0.5-0.2c0.1-0.1,0.2-0.3,0.3-0.5c0.1-0.2,0.1-0.5,0.1-0.9
		V91.9c0-0.4,0-0.7-0.1-0.9c-0.1-0.2-0.2-0.4-0.3-0.5c-0.1-0.1-0.3-0.2-0.5-0.3c-0.2,0-0.4-0.1-0.6-0.1h-1.2v-1.5h9.5
		c2.8,0,4.8,0.5,6.1,1.4c1.3,0.9,1.9,2.3,1.9,4c0,0.8-0.1,1.5-0.3,2.1c-0.2,0.6-0.5,1.1-0.9,1.6c-0.4,0.4-0.8,0.8-1.3,1.1
		s-1,0.6-1.5,0.8l3.5,6c0.2,0.4,0.5,0.8,0.7,1.1c0.2,0.3,0.5,0.5,0.7,0.7s0.5,0.3,0.7,0.4s0.5,0.1,0.8,0.1h0.1v1.6h-1
		c-0.9,0-1.6,0-2.3-0.1s-1.2-0.2-1.7-0.4c-0.5-0.2-0.9-0.5-1.3-0.8c-0.4-0.3-0.7-0.8-1-1.3l-3.5-6.5h-1.9v5.8c0,0.4,0,0.7,0.1,0.9
		c0.1,0.2,0.2,0.4,0.3,0.5c0.1,0.1,0.3,0.2,0.5,0.2c0.2,0,0.4,0.1,0.6,0.1H83v1.6H72.9V108z M80.2,98.7h1.6c0.7,0,1.2-0.1,1.7-0.3
		c0.5-0.2,0.8-0.5,1.1-0.8c0.3-0.4,0.5-0.8,0.6-1.3c0.1-0.5,0.2-1.2,0.2-1.9c0-0.7-0.1-1.4-0.2-1.9c-0.1-0.5-0.3-0.9-0.6-1.3
		c-0.3-0.3-0.7-0.6-1.1-0.7c-0.5-0.1-1-0.2-1.7-0.2h-1.6V98.7z"/>
	<path class="st1" d="M101,107.8h5.9c0.3,0,0.5-0.1,0.8-0.2c0.2-0.1,0.4-0.3,0.5-0.5s0.3-0.4,0.4-0.7c0.1-0.3,0.2-0.6,0.2-0.9
		l0.2-1.4h2l-0.2,5.4H93.6V108h1.2c0.2,0,0.4,0,0.6-0.1c0.2,0,0.3-0.1,0.5-0.2c0.1-0.1,0.2-0.3,0.3-0.5c0.1-0.2,0.1-0.5,0.1-0.9
		V92.1c0-0.4,0-0.8-0.1-1s-0.2-0.4-0.3-0.6c-0.1-0.1-0.3-0.2-0.5-0.3c-0.2,0-0.4-0.1-0.6-0.1h-1.2v-1.5h16.3L110,94h-2l-0.1-1.4
		c-0.1-0.7-0.3-1.3-0.5-1.6s-0.7-0.6-1.3-0.6H101v7.3h7v1.8h-7V107.8z"/>
	<path class="st1" d="M119.7,109.8c-1.3,0-2.4-0.1-3.3-0.4c-0.9-0.2-1.6-0.6-2.1-1c-0.5-0.4-0.9-0.8-1.1-1.3c-0.2-0.5-0.3-1-0.3-1.4
		c0-0.5,0.1-0.9,0.3-1.3c0.2-0.3,0.4-0.6,0.7-0.8c0.3-0.2,0.7-0.4,1.1-0.5c0.4-0.1,0.8-0.1,1.2-0.1c0,0.8,0.1,1.6,0.3,2.2
		c0.2,0.6,0.5,1.2,0.8,1.6c0.4,0.4,0.8,0.7,1.3,1s1,0.3,1.6,0.3c0.6,0,1.1-0.1,1.5-0.2c0.4-0.2,0.8-0.4,1.1-0.7
		c0.3-0.3,0.6-0.6,0.7-1c0.2-0.4,0.2-0.8,0.2-1.3c0-0.5-0.1-0.9-0.3-1.3s-0.5-0.7-0.9-1.1c-0.4-0.3-0.9-0.6-1.5-0.9
		c-0.6-0.3-1.3-0.6-2.2-1c-1-0.4-1.9-0.9-2.6-1.3c-0.7-0.4-1.3-0.9-1.7-1.4c-0.4-0.5-0.7-1.1-0.9-1.7c-0.2-0.6-0.3-1.3-0.3-2
		c0-0.9,0.2-1.7,0.5-2.4c0.4-0.7,0.9-1.3,1.5-1.9c0.6-0.5,1.4-0.9,2.3-1.2c0.9-0.3,1.8-0.4,2.9-0.4c1.1,0,2,0.1,2.8,0.3
		c0.8,0.2,1.4,0.4,1.9,0.7c0.5,0.3,0.9,0.7,1.1,1.1s0.4,0.9,0.4,1.3c0,0.3-0.1,0.7-0.2,1c-0.1,0.3-0.4,0.6-0.7,0.8
		c-0.3,0.2-0.7,0.4-1.1,0.5c-0.5,0.1-1,0.2-1.6,0.2c0-0.4-0.1-0.9-0.2-1.3c-0.1-0.5-0.3-0.9-0.5-1.3c-0.2-0.4-0.6-0.7-1-1
		c-0.4-0.3-0.9-0.4-1.4-0.4c-0.4,0-0.8,0.1-1.1,0.2c-0.4,0.1-0.7,0.3-0.9,0.5c-0.3,0.2-0.5,0.5-0.6,0.9c-0.2,0.3-0.2,0.7-0.2,1.2
		c0,0.4,0.1,0.8,0.2,1.2c0.1,0.4,0.4,0.7,0.7,1.1c0.4,0.3,0.9,0.7,1.5,1c0.6,0.3,1.4,0.7,2.4,1.1c1,0.4,1.9,0.8,2.6,1.3
		c0.7,0.4,1.3,0.9,1.7,1.4c0.5,0.5,0.8,1,1,1.6s0.3,1.2,0.3,2c0,0.9-0.2,1.8-0.6,2.6s-0.9,1.5-1.6,2s-1.5,1-2.5,1.3
		C122,109.7,120.9,109.8,119.7,109.8z"/>
	<path class="st1" d="M141.6,107.5c0.7,0,1.4-0.1,1.9-0.3c0.6-0.2,1.1-0.4,1.5-0.7c0.4-0.3,0.8-0.6,1.2-0.9c0.3-0.3,0.6-0.7,0.9-1
		c0.2,0.1,0.3,0.3,0.4,0.5c0.1,0.2,0.1,0.5,0.1,0.7c0,0.4-0.1,0.8-0.3,1.3s-0.6,0.9-1.1,1.3c-0.5,0.4-1.2,0.7-2,0.9
		c-0.9,0.2-1.9,0.4-3.2,0.4c-1.7,0-3.2-0.3-4.5-0.8c-1.3-0.5-2.3-1.2-3.2-2.2s-1.5-2.1-1.9-3.4c-0.4-1.3-0.6-2.8-0.6-4.4
		c0-1.6,0.2-3,0.6-4.4c0.4-1.3,1.1-2.5,1.9-3.4c0.8-0.9,1.9-1.7,3.2-2.2s2.7-0.8,4.4-0.8c1.1,0,2.1,0.1,2.9,0.3
		c0.8,0.2,1.5,0.4,2.1,0.7c0.6,0.3,1,0.7,1.2,1.1c0.3,0.4,0.4,0.9,0.4,1.3c0,0.4-0.1,0.7-0.2,1c-0.2,0.3-0.4,0.6-0.7,0.8
		c-0.3,0.2-0.7,0.4-1.2,0.5c-0.5,0.1-1,0.2-1.6,0.2c0-0.5-0.1-1-0.2-1.5c-0.1-0.5-0.3-0.9-0.5-1.3c-0.3-0.4-0.6-0.7-1-1
		c-0.4-0.2-0.9-0.4-1.5-0.4c-0.9,0-1.7,0.2-2.3,0.6s-1.2,1-1.5,1.7c-0.4,0.8-0.7,1.7-0.8,2.8c-0.2,1.1-0.3,2.4-0.3,3.8
		s0.1,2.7,0.3,3.7c0.2,1.1,0.5,1.9,1,2.6c0.5,0.7,1.1,1.2,1.8,1.6C139.6,107.3,140.5,107.5,141.6,107.5z"/>
	<path class="st1" d="M170.2,90.1h-1.3c-0.2,0-0.4,0-0.6,0.1s-0.3,0.1-0.5,0.3c-0.1,0.1-0.2,0.3-0.3,0.6c-0.1,0.2-0.1,0.6-0.1,1
		v11.4c0,1-0.1,1.9-0.4,2.7c-0.3,0.8-0.7,1.4-1.3,2c-0.6,0.5-1.4,1-2.3,1.3c-0.9,0.3-2,0.4-3.3,0.4c-1.3,0-2.4-0.1-3.4-0.4
		c-1-0.2-1.9-0.6-2.6-1.2c-0.7-0.5-1.2-1.2-1.6-2.1c-0.4-0.8-0.6-1.9-0.6-3.1V91.9c0-0.4,0-0.7-0.1-0.9c-0.1-0.2-0.2-0.4-0.3-0.5
		s-0.3-0.2-0.5-0.3s-0.4-0.1-0.6-0.1h-1.3v-1.5h10.1v1.5h-1.2c-0.2,0-0.4,0-0.6,0.1c-0.2,0-0.3,0.1-0.5,0.3s-0.2,0.3-0.3,0.6
		c-0.1,0.2-0.1,0.6-0.1,1v11.3c0,0.8,0.1,1.5,0.3,2.1c0.2,0.6,0.5,1,0.9,1.3c0.4,0.3,0.8,0.6,1.4,0.7c0.5,0.1,1.1,0.2,1.8,0.2
		c0.6,0,1.2-0.1,1.8-0.3s1-0.4,1.3-0.8c0.4-0.4,0.7-0.8,0.9-1.3c0.2-0.5,0.3-1.2,0.3-1.9V91.9c0-0.4,0-0.7-0.1-0.9
		c-0.1-0.2-0.2-0.4-0.3-0.5s-0.3-0.2-0.5-0.3c-0.2,0-0.4-0.1-0.6-0.1h-1.2v-1.5h7.7V90.1z"/>
	<path class="st1" d="M178.9,107.8h5.9c0.3,0,0.5-0.1,0.8-0.2s0.4-0.3,0.5-0.5c0.2-0.2,0.3-0.4,0.4-0.7c0.1-0.3,0.2-0.6,0.2-0.9
		l0.2-1.4h2l-0.2,5.4h-17.2V108h1.2c0.2,0,0.4,0,0.6-0.1c0.2,0,0.3-0.1,0.5-0.2c0.1-0.1,0.2-0.3,0.3-0.5c0.1-0.2,0.1-0.5,0.1-0.9
		V92.1c0-0.4,0-0.8-0.1-1s-0.2-0.4-0.3-0.6s-0.3-0.2-0.5-0.3s-0.4-0.1-0.6-0.1h-1.2v-1.5h16.3l0.1,5.4h-2l-0.1-1.4
		c-0.1-0.7-0.3-1.3-0.5-1.6c-0.3-0.4-0.7-0.6-1.3-0.6h-4.9v7.3h7v1.8h-7V107.8z"/>
</g>
<g>
	<ellipse transform="matrix(0.6482 -0.7615 0.7615 0.6482 42.4596 187.0355)" class="st1" cx="223.6" cy="47.6" rx="5.5" ry="3.5"/>
	<ellipse transform="matrix(0.8321 -0.5546 0.5546 0.8321 6.1085 135.2808)" class="st1" cx="226.5" cy="57.6" rx="5.1" ry="3.2"/>
	<ellipse transform="matrix(0.3538 -0.9353 0.9353 0.3538 99.1997 228.3923)" class="st1" cx="214.9" cy="42.4" rx="5.5" ry="3.5"/>
	
		<ellipse transform="matrix(8.385914e-02 -0.9965 0.9965 8.385914e-02 143.0367 245.0245)" class="st1" cx="204.8" cy="44.7" rx="5.1" ry="3.2"/>
	<path class="st1" d="M207.4,65.1c-12.7-2.8-10-9.6-5.9-11.5c1.7-0.8,3.8-1.3,4.9-1.5c0.8-0.2,2.5-1.3,3.9-1.8
		c3.8-1.5,5.8,0,5.9,0.1c0.1,0.1,2.4,1.1,2.9,5.1c0.2,1.5,0,3.5,0.2,4.3c0.3,1.1,0.9,3.2,1.1,5C220.6,69.2,215.9,74.9,207.4,65.1z"
		/>
</g>
</svg>
