<?xml version="1.0" encoding="utf-8"?>
<!-- Generator: Adobe Illustrator 21.0.2, SVG Export Plug-In . SVG Version: 6.00 Build 0)  -->
<svg version="1.1" id="Layer_1" xmlns="http://www.w3.org/2000/svg" xmlns:xlink="http://www.w3.org/1999/xlink" x="0px" y="0px"
	 viewBox="0 0 64 37.8" style="enable-background:new 0 0 64 37.8;" xml:space="preserve">
<style type="text/css">
	.st0{fill:#423957;}
	.st1{fill:none;}
	.st2{fill:#FFFFFF;}
	.st3{font-family:'DroidSerif-Bold';}
	.st4{font-size:10.5537px;}
</style>
<path class="st0" d="M64,12.3c0-5.8-4.7-10.5-10.5-10.5c-4.8,0-8.8,3.2-10,7.5h-4.4c0.2-0.6,0.3-1.3,0.3-2C39.4,3.3,36.1,0,32,0
	s-7.4,3.3-7.4,7.4c0,0.7,0.1,1.3,0.3,2h-4.4c-1.3-4.3-5.3-7.5-10-7.5C4.7,1.8,0,6.5,0,12.3c0,3,1.2,5.6,3.2,7.5
	c-2,1.9-3.2,4.6-3.2,7.5c0,5.8,4.7,10.5,10.5,10.5c4.4,0,8.1-2.7,9.7-6.5h23.7c1.5,3.8,5.3,6.5,9.7,6.5c5.8,0,10.5-4.7,10.5-10.5
	c0-3-1.2-5.6-3.2-7.5C62.8,17.9,64,15.2,64,12.3z M34,9.4c-0.6,0.4-1.2,0.6-2,0.6s-1.4-0.2-2-0.6c-0.9-0.6-1.5-1.7-1.5-2.9
	C28.5,4.5,30.1,3,32,3s3.5,1.6,3.5,3.5C35.5,7.7,34.9,8.7,34,9.4z"/>
<rect x="14.6" y="12.4" class="st1" width="36.5" height="17"/>
<text transform="matrix(1 0 0 1 17.5889 20.4248)"><tspan x="0" y="0" class="st2 st3 st4">LOYA</tspan><tspan x="11.8" y="7" class="st2 st3 st4">L </tspan></text>
<g>
	<ellipse transform="matrix(0.6482 -0.7615 0.7615 0.6482 10.6438 46.8861)" class="st2" cx="56.1" cy="11.9" rx="1.4" ry="0.9"/>
	<ellipse transform="matrix(0.8321 -0.5546 0.5546 0.8321 1.5313 33.9122)" class="st2" cx="56.8" cy="14.4" rx="1.3" ry="0.8"/>
	<ellipse transform="matrix(0.3538 -0.9353 0.9353 0.3538 24.8674 57.2534)" class="st2" cx="53.9" cy="10.6" rx="1.4" ry="0.9"/>
	
		<ellipse transform="matrix(8.385914e-02 -0.9965 0.9965 8.385914e-02 35.8564 61.4228)" class="st2" cx="51.3" cy="11.2" rx="1.3" ry="0.8"/>
	<path class="st2" d="M52,16.3c-3.2-0.7-2.5-2.4-1.5-2.9c0.4-0.2,1-0.3,1.2-0.4c0.2,0,0.6-0.3,1-0.5c0.9-0.4,1.4,0,1.5,0
		c0,0,0.6,0.3,0.7,1.3c0,0.4,0,0.9,0.1,1.1c0.1,0.3,0.2,0.8,0.3,1.3C55.3,17.3,54.1,18.8,52,16.3z"/>
</g>
</svg>
