<?xml version="1.0" encoding="utf-8"?>
<!-- Generator: Adobe Illustrator 21.0.2, SVG Export Plug-In . SVG Version: 6.00 Build 0)  -->
<svg version="1.1" id="Layer_1" xmlns="http://www.w3.org/2000/svg" xmlns:xlink="http://www.w3.org/1999/xlink" x="0px" y="0px"
	 viewBox="0 0 256 150.7" style="enable-background:new 0 0 256 150.7;" xml:space="preserve">
<style type="text/css">
	.st0{fill:#423957;}
	.st1{fill:none;}
	.st2{fill:#FFFFFF;}
	.st3{font-family:'DroidSerif-Bold';}
	.st4{font-size:42.1001px;}
</style>
<path class="st0" d="M255.3,49c0-23-18.7-41.7-41.7-41.7c-19,0-35,12.7-40,30h-17.5c0.7-2.5,1.1-5.1,1.1-7.9
	c0-16.3-13.2-29.5-29.5-29.5S98.2,13.2,98.2,29.5c0,2.7,0.4,5.4,1.1,7.9H81.7c-5-17.3-21.1-30-40-30C18.7,7.3,0,26,0,49
	c0,11.8,4.9,22.4,12.7,30C4.9,86.6,0,97.2,0,109c0,23,18.7,41.7,41.7,41.7c17.5,0,32.5-10.8,38.7-26.1h94.6
	c6.2,15.3,21.2,26.1,38.7,26.1c23,0,41.7-18.7,41.7-41.7c0-11.8-4.9-22.4-12.7-30C250.4,71.4,255.3,60.8,255.3,49z M135.5,37.3
	c-2.2,1.5-5,2.4-7.9,2.4c-2.9,0-5.6-0.9-7.9-2.4c-3.7-2.5-6.1-6.7-6.1-11.5c0-7.7,6.2-14,13.9-14s13.9,6.3,13.9,14
	C141.6,30.6,139.2,34.8,135.5,37.3z"/>
<rect x="58.2" y="49.5" class="st1" width="145.5" height="68"/>
<text transform="matrix(1 0 0 1 70.166 81.4785)"><tspan x="0" y="0" class="st2 st3 st4">LOYA</tspan><tspan x="47" y="28.1" class="st2 st3 st4">L </tspan></text>
<g>
	<ellipse transform="matrix(0.6482 -0.7615 0.7615 0.6482 42.4596 187.0355)" class="st2" cx="223.6" cy="47.6" rx="5.5" ry="3.5"/>
	<ellipse transform="matrix(0.8321 -0.5546 0.5546 0.8321 6.1085 135.2808)" class="st2" cx="226.5" cy="57.6" rx="5.1" ry="3.2"/>
	<ellipse transform="matrix(0.3538 -0.9353 0.9353 0.3538 99.1997 228.3923)" class="st2" cx="214.9" cy="42.4" rx="5.5" ry="3.5"/>
	
		<ellipse transform="matrix(8.385914e-02 -0.9965 0.9965 8.385914e-02 143.0367 245.0245)" class="st2" cx="204.8" cy="44.7" rx="5.1" ry="3.2"/>
	<path class="st2" d="M207.4,65.1c-12.7-2.8-10-9.6-5.9-11.5c1.7-0.8,3.8-1.3,4.9-1.5c0.8-0.2,2.5-1.3,3.9-1.8
		c3.8-1.5,5.8,0,5.9,0.1c0.1,0.1,2.4,1.1,2.9,5.1c0.2,1.5,0,3.5,0.2,4.3c0.3,1.1,0.9,3.2,1.1,5C220.6,69.2,215.9,74.9,207.4,65.1z"
		/>
</g>
</svg>
