<?xml version="1.0" encoding="utf-8"?>
<!-- Generator: Adobe Illustrator 21.0.2, SVG Export Plug-In . SVG Version: 6.00 Build 0)  -->
<svg version="1.1" id="Layer_1" xmlns="http://www.w3.org/2000/svg" xmlns:xlink="http://www.w3.org/1999/xlink" x="0px" y="0px"
	 viewBox="0 0 32 19.3" style="enable-background:new 0 0 32 19.3;" xml:space="preserve">
<style type="text/css">
	.st0{fill:#423957;}
	.st1{fill:#FFFFFF;}
</style>
<path class="st0" d="M32,6.4c0-2.9-2.4-5.3-5.3-5.3c-2.4,0-4.4,1.6-5,3.8h-2.2c0.1-0.3,0.1-0.6,0.1-1c0-2.1-1.7-3.7-3.7-3.7
	S12.2,1.9,12.2,4c0,0.3,0,0.7,0.1,1h-2.2c-0.6-2.2-2.7-3.8-5-3.8c-2.9,0-5.3,2.4-5.3,5.3c0,1.5,0.6,2.8,1.6,3.8
	c-1,1-1.6,2.3-1.6,3.8c0,2.9,2.4,5.3,5.3,5.3c2.2,0,4.1-1.4,4.9-3.3h11.9c0.8,1.9,2.7,3.3,4.9,3.3c2.9,0,5.3-2.4,5.3-5.3
	c0-1.5-0.6-2.8-1.6-3.8C31.4,9.3,32,7.9,32,6.4z M16.9,5c-0.3,0.2-0.6,0.3-1,0.3c-0.4,0-0.7-0.1-1-0.3c-0.5-0.3-0.8-0.8-0.8-1.5
	c0-1,0.8-1.8,1.8-1.8s1.8,0.8,1.8,1.8C17.7,4.1,17.4,4.6,16.9,5z"/>
<g>
	<path class="st1" d="M7.3,10.5v-0.3h0.2c0,0,0.1,0,0.1,0s0.1,0,0.1,0c0,0,0-0.1,0.1-0.1c0,0,0-0.1,0-0.2V7.4c0-0.1,0-0.1,0-0.2
		c0,0,0-0.1-0.1-0.1c0,0-0.1,0-0.1,0S7.6,7,7.5,7H7.3V6.7h1.8V7H8.9c0,0-0.1,0-0.1,0s-0.1,0-0.1,0c0,0,0,0.1-0.1,0.1
		c0,0,0,0.1,0,0.2v2.9h1c0.1,0,0.2,0,0.3-0.1C10,10,10,9.9,10.1,9.7l0.1-0.4h0.3l0,1.2H7.3z"/>
	<path class="st1" d="M14.5,8.6c0,0.3,0,0.6-0.1,0.8C14.3,9.7,14.2,9.9,14,10c-0.2,0.2-0.3,0.3-0.6,0.4c-0.2,0.1-0.5,0.1-0.8,0.1
		c-0.3,0-0.6,0-0.8-0.1c-0.2-0.1-0.4-0.2-0.6-0.4c-0.1-0.2-0.3-0.4-0.3-0.6c-0.1-0.2-0.1-0.5-0.1-0.8c0-0.3,0-0.6,0.1-0.8
		s0.2-0.4,0.3-0.6s0.3-0.3,0.6-0.4c0.2-0.1,0.5-0.1,0.8-0.1c0.3,0,0.5,0,0.8,0.1C13.7,6.9,13.9,7,14,7.2c0.2,0.2,0.3,0.4,0.3,0.6
		S14.5,8.3,14.5,8.6z M11.8,8.6c0,0.3,0,0.5,0,0.7c0,0.2,0.1,0.4,0.2,0.5c0.1,0.1,0.2,0.2,0.3,0.3c0.1,0.1,0.3,0.1,0.4,0.1
		c0.2,0,0.3,0,0.4-0.1c0.1-0.1,0.2-0.2,0.3-0.3c0.1-0.1,0.1-0.3,0.2-0.5c0-0.2,0-0.4,0-0.7s0-0.5,0-0.7c0-0.2-0.1-0.4-0.2-0.5
		c-0.1-0.1-0.2-0.2-0.3-0.3C13,7.1,12.9,7,12.7,7c-0.2,0-0.3,0-0.4,0.1c-0.1,0.1-0.2,0.2-0.3,0.3c-0.1,0.1-0.1,0.3-0.2,0.5
		S11.8,8.4,11.8,8.6z"/>
	<path class="st1" d="M15.5,10.5v-0.3h0.2c0,0,0.1,0,0.1,0c0,0,0.1,0,0.1,0c0,0,0-0.1,0.1-0.1c0,0,0-0.1,0-0.2V9.2l-1-1.9
		c0-0.1-0.1-0.1-0.1-0.1c0,0,0-0.1-0.1-0.1c0,0-0.1,0-0.1,0c0,0-0.1,0-0.1,0h-0.1V6.7h1.8V7h-0.1c-0.1,0-0.2,0-0.2,0.1
		C16,7.1,16,7.2,16,7.3c0,0,0,0.1,0,0.1c0,0.1,0,0.1,0.1,0.1l0.4,0.8c0.1,0.1,0.1,0.2,0.1,0.3c0,0.1,0.1,0.2,0.1,0.3
		c0-0.1,0.1-0.2,0.1-0.3c0-0.1,0.1-0.2,0.2-0.3l0.3-0.6c0-0.1,0.1-0.1,0.1-0.2c0-0.1,0-0.1,0-0.1c0-0.1,0-0.2-0.1-0.2
		C17.3,7,17.2,7,17.1,7h-0.1V6.7h1.4V7h-0.1c0,0-0.1,0-0.1,0c0,0-0.1,0-0.1,0.1c0,0-0.1,0.1-0.1,0.1c0,0.1-0.1,0.1-0.1,0.2l-0.9,1.8
		v0.7c0,0.1,0,0.1,0,0.2c0,0,0,0.1,0.1,0.1c0,0,0.1,0,0.1,0c0,0,0.1,0,0.1,0h0.3v0.3H15.5z"/>
	<path class="st1" d="M19.1,9.3L19,9.7c0,0,0,0.1,0,0.2c0,0.1,0,0.1,0,0.2c0,0,0,0.1,0,0.1s0,0,0.1,0.1c0,0,0,0,0.1,0s0.1,0,0.1,0
		h0.2v0.3H18v-0.3H18c0,0,0.1,0,0.1,0c0,0,0.1,0,0.1-0.1c0,0,0.1-0.1,0.1-0.1c0-0.1,0.1-0.1,0.1-0.2l1.2-3.1h0.7l1.1,3.1
		c0,0.1,0.1,0.1,0.1,0.2s0.1,0.1,0.1,0.1c0,0,0.1,0,0.1,0.1c0,0,0.1,0,0.1,0h0.1v0.3h-1.8v-0.3h0.2c0,0,0.1,0,0.1,0c0,0,0.1,0,0.1,0
		c0,0,0,0,0.1-0.1c0,0,0-0.1,0-0.1c0,0,0-0.1,0-0.1c0,0,0-0.1,0-0.1l-0.2-0.5H19.1z M20,8.1C20,8,20,8,20,7.9c0-0.1,0-0.1-0.1-0.2
		c0-0.1,0-0.1-0.1-0.2c0-0.1,0-0.1,0-0.2c0,0.1,0,0.1-0.1,0.2c0,0.1,0,0.1-0.1,0.2s0,0.1-0.1,0.2s0,0.1-0.1,0.2L19.2,9h1.1L20,8.1z"
		/>
	<path class="st1" d="M22.1,10.5v-0.3h0.2c0,0,0.1,0,0.1,0c0,0,0.1,0,0.1,0c0,0,0-0.1,0.1-0.1s0-0.1,0-0.2V7.4c0-0.1,0-0.1,0-0.2
		s0-0.1-0.1-0.1c0,0-0.1,0-0.1,0c0,0-0.1,0-0.1,0h-0.2V6.7h1.8V7h-0.2c0,0-0.1,0-0.1,0c0,0-0.1,0-0.1,0c0,0,0,0.1-0.1,0.1
		c0,0,0,0.1,0,0.2v2.9h1c0.1,0,0.2,0,0.3-0.1c0.1-0.1,0.1-0.2,0.1-0.3l0.1-0.4h0.3l0,1.2H22.1z"/>
	<path class="st1" d="M9,13.9h0.2c0,0,0,0,0.1,0s0,0,0.1,0c0,0,0,0,0-0.1c0,0,0-0.1,0-0.1v-1.8c0,0,0-0.1,0-0.1s0-0.1,0-0.1
		c0,0,0,0-0.1,0c0,0,0,0-0.1,0H9v-0.2h1.2c0.3,0,0.6,0.1,0.8,0.2s0.2,0.3,0.2,0.5c0,0.1,0,0.2,0,0.3s-0.1,0.1-0.1,0.2
		c0,0.1-0.1,0.1-0.2,0.1c-0.1,0-0.1,0.1-0.2,0.1l0.4,0.8c0,0.1,0.1,0.1,0.1,0.1c0,0,0.1,0.1,0.1,0.1c0,0,0.1,0,0.1,0.1
		c0,0,0.1,0,0.1,0h0v0.2h-0.1c-0.1,0-0.2,0-0.3,0s-0.2,0-0.2,0c-0.1,0-0.1-0.1-0.2-0.1c0,0-0.1-0.1-0.1-0.2l-0.4-0.8H9.9v0.7
		c0,0,0,0.1,0,0.1c0,0,0,0.1,0,0.1c0,0,0,0,0.1,0c0,0,0,0,0.1,0h0.2v0.2H9V13.9z M9.9,12.7h0.2c0.1,0,0.2,0,0.2,0s0.1-0.1,0.1-0.1
		c0,0,0.1-0.1,0.1-0.2c0-0.1,0-0.1,0-0.2c0-0.1,0-0.2,0-0.2c0-0.1,0-0.1-0.1-0.2s-0.1-0.1-0.1-0.1c-0.1,0-0.1,0-0.2,0H9.9V12.7z"/>
	<path class="st1" d="M12.5,13.8h0.7c0,0,0.1,0,0.1,0s0,0,0.1-0.1c0,0,0-0.1,0-0.1c0,0,0-0.1,0-0.1l0-0.2h0.3l0,0.7h-2.2v-0.2h0.2
		c0,0,0.1,0,0.1,0c0,0,0,0,0.1,0c0,0,0,0,0-0.1c0,0,0-0.1,0-0.1v-1.8c0-0.1,0-0.1,0-0.1c0,0,0-0.1,0-0.1c0,0,0,0-0.1,0
		c0,0,0,0-0.1,0h-0.2v-0.2h2.1l0,0.7h-0.3l0-0.2c0-0.1,0-0.2-0.1-0.2c0,0-0.1-0.1-0.2-0.1h-0.6v0.9h0.9v0.2h-0.9V13.8z"/>
	<path class="st1" d="M14.9,14.1c-0.2,0-0.3,0-0.4,0s-0.2-0.1-0.3-0.1s-0.1-0.1-0.1-0.2c0-0.1,0-0.1,0-0.2c0-0.1,0-0.1,0-0.2
		s0.1-0.1,0.1-0.1c0,0,0.1,0,0.1-0.1c0,0,0.1,0,0.2,0c0,0.1,0,0.2,0,0.3c0,0.1,0.1,0.1,0.1,0.2c0,0.1,0.1,0.1,0.2,0.1
		c0.1,0,0.1,0,0.2,0c0.1,0,0.1,0,0.2,0s0.1,0,0.1-0.1s0.1-0.1,0.1-0.1s0-0.1,0-0.2c0-0.1,0-0.1,0-0.2c0,0-0.1-0.1-0.1-0.1
		s-0.1-0.1-0.2-0.1s-0.2-0.1-0.3-0.1c-0.1-0.1-0.2-0.1-0.3-0.2c-0.1-0.1-0.2-0.1-0.2-0.2s-0.1-0.1-0.1-0.2s0-0.2,0-0.2
		c0-0.1,0-0.2,0.1-0.3c0-0.1,0.1-0.2,0.2-0.2s0.2-0.1,0.3-0.1c0.1,0,0.2-0.1,0.4-0.1c0.1,0,0.3,0,0.4,0c0.1,0,0.2,0.1,0.2,0.1
		c0.1,0,0.1,0.1,0.1,0.1c0,0.1,0,0.1,0,0.2c0,0,0,0.1,0,0.1c0,0,0,0.1-0.1,0.1c0,0-0.1,0-0.1,0.1s-0.1,0-0.2,0c0-0.1,0-0.1,0-0.2
		s0-0.1-0.1-0.2c0-0.1-0.1-0.1-0.1-0.1c-0.1,0-0.1-0.1-0.2-0.1c0,0-0.1,0-0.1,0c0,0-0.1,0-0.1,0.1c0,0-0.1,0.1-0.1,0.1
		c0,0,0,0.1,0,0.1c0,0.1,0,0.1,0,0.1c0,0,0,0.1,0.1,0.1c0,0,0.1,0.1,0.2,0.1c0.1,0,0.2,0.1,0.3,0.1c0.1,0.1,0.2,0.1,0.3,0.2
		c0.1,0.1,0.2,0.1,0.2,0.2c0.1,0.1,0.1,0.1,0.1,0.2s0,0.2,0,0.2c0,0.1,0,0.2-0.1,0.3c0,0.1-0.1,0.2-0.2,0.3
		c-0.1,0.1-0.2,0.1-0.3,0.2C15.2,14.1,15.1,14.1,14.9,14.1z"/>
	<path class="st1" d="M17.7,13.8c0.1,0,0.2,0,0.2,0c0.1,0,0.1,0,0.2-0.1s0.1-0.1,0.1-0.1s0.1-0.1,0.1-0.1c0,0,0,0,0,0.1
		c0,0,0,0.1,0,0.1c0,0.1,0,0.1,0,0.2s-0.1,0.1-0.1,0.2c-0.1,0-0.2,0.1-0.3,0.1s-0.2,0-0.4,0c-0.2,0-0.4,0-0.6-0.1s-0.3-0.2-0.4-0.3
		s-0.2-0.3-0.2-0.4c-0.1-0.2-0.1-0.4-0.1-0.6c0-0.2,0-0.4,0.1-0.5c0.1-0.2,0.1-0.3,0.2-0.4s0.2-0.2,0.4-0.3c0.2-0.1,0.3-0.1,0.6-0.1
		c0.1,0,0.3,0,0.4,0c0.1,0,0.2,0.1,0.3,0.1c0.1,0,0.1,0.1,0.2,0.1c0,0.1,0.1,0.1,0.1,0.2c0,0,0,0.1,0,0.1c0,0,0,0.1-0.1,0.1
		s-0.1,0.1-0.1,0.1c-0.1,0-0.1,0-0.2,0c0-0.1,0-0.1,0-0.2c0-0.1,0-0.1-0.1-0.2c0,0-0.1-0.1-0.1-0.1c-0.1,0-0.1,0-0.2,0
		c-0.1,0-0.2,0-0.3,0.1c-0.1,0-0.1,0.1-0.2,0.2S17,12.1,17,12.3s0,0.3,0,0.5s0,0.3,0,0.5c0,0.1,0.1,0.2,0.1,0.3
		c0.1,0.1,0.1,0.2,0.2,0.2S17.5,13.8,17.7,13.8z"/>
	<path class="st1" d="M21.3,11.6h-0.2c0,0,0,0-0.1,0c0,0,0,0-0.1,0s0,0,0,0.1s0,0.1,0,0.1v1.4c0,0.1,0,0.2-0.1,0.3
		c0,0.1-0.1,0.2-0.2,0.3C20.6,14,20.5,14,20.4,14c-0.1,0-0.3,0.1-0.4,0.1c-0.2,0-0.3,0-0.4,0s-0.2-0.1-0.3-0.1s-0.2-0.2-0.2-0.3
		c0-0.1-0.1-0.2-0.1-0.4v-1.4c0,0,0-0.1,0-0.1c0,0,0-0.1,0-0.1s0,0-0.1,0c0,0,0,0-0.1,0h-0.2v-0.2h1.3v0.2h-0.2c0,0,0,0-0.1,0
		c0,0,0,0-0.1,0s0,0,0,0.1s0,0.1,0,0.1v1.4c0,0.1,0,0.2,0,0.3c0,0.1,0.1,0.1,0.1,0.2c0,0,0.1,0.1,0.2,0.1c0.1,0,0.1,0,0.2,0
		c0.1,0,0.2,0,0.2,0s0.1-0.1,0.2-0.1c0,0,0.1-0.1,0.1-0.2c0-0.1,0-0.1,0-0.2v-1.5c0,0,0-0.1,0-0.1s0-0.1,0-0.1s0,0-0.1,0
		c0,0,0,0-0.1,0h-0.2v-0.2h1V11.6z"/>
	<path class="st1" d="M22.4,13.8h0.7c0,0,0.1,0,0.1,0s0,0,0.1-0.1s0-0.1,0-0.1c0,0,0-0.1,0-0.1l0-0.2h0.3l0,0.7h-2.2v-0.2h0.2
		c0,0,0.1,0,0.1,0c0,0,0,0,0.1,0s0,0,0-0.1c0,0,0-0.1,0-0.1v-1.8c0-0.1,0-0.1,0-0.1s0-0.1,0-0.1s0,0-0.1,0c0,0,0,0-0.1,0h-0.2v-0.2
		h2.1l0,0.7h-0.3l0-0.2c0-0.1,0-0.2-0.1-0.2c0,0-0.1-0.1-0.2-0.1h-0.6v0.9h0.9v0.2h-0.9V13.8z"/>
</g>
<g>
	<ellipse transform="matrix(0.6482 -0.7615 0.7615 0.6482 5.0922 23.5283)" class="st1" cx="28" cy="6.3" rx="0.7" ry="0.4"/>
	<ellipse transform="matrix(0.8321 -0.5546 0.5546 0.8321 0.5967 16.9948)" class="st1" cx="28.4" cy="7.5" rx="0.6" ry="0.4"/>
	<ellipse transform="matrix(0.3538 -0.9353 0.9353 0.3538 12.1461 28.7855)" class="st1" cx="26.9" cy="5.6" rx="0.7" ry="0.4"/>
	
		<ellipse transform="matrix(8.385914e-02 -0.9965 0.9965 8.385914e-02 17.607 30.9404)" class="st1" cx="25.6" cy="5.9" rx="0.6" ry="0.4"/>
	<path class="st1" d="M26,8.5c-1.6-0.4-1.3-1.2-0.7-1.5c0.2-0.1,0.5-0.2,0.6-0.2c0.1,0,0.3-0.2,0.5-0.2c0.5-0.2,0.7,0,0.7,0
		c0,0,0.3,0.1,0.4,0.6c0,0.2,0,0.4,0,0.5c0,0.1,0.1,0.4,0.1,0.6C27.6,9,27,9.7,26,8.5z"/>
</g>
</svg>
