<?xml version="1.0" encoding="utf-8"?>
<!-- Generator: Adobe Illustrator 21.0.2, SVG Export Plug-In . SVG Version: 6.00 Build 0)  -->
<svg version="1.1" id="Layer_1" xmlns="http://www.w3.org/2000/svg" xmlns:xlink="http://www.w3.org/1999/xlink" x="0px" y="0px"
	 viewBox="0 0 64 37.8" style="enable-background:new 0 0 64 37.8;" xml:space="preserve">
<style type="text/css">
	.st0{fill:#423957;}
	.st1{fill:#FFFFFF;}
</style>
<path class="st0" d="M64,12.3c0-5.8-4.7-10.5-10.5-10.5c-4.8,0-8.8,3.2-10,7.5h-4.4c0.2-0.6,0.3-1.3,0.3-2C39.4,3.3,36.1,0,32,0
	s-7.4,3.3-7.4,7.4c0,0.7,0.1,1.3,0.3,2h-4.4c-1.3-4.3-5.3-7.5-10-7.5C4.7,1.8,0,6.5,0,12.3c0,3,1.2,5.6,3.2,7.5
	c-2,1.9-3.2,4.6-3.2,7.5c0,5.8,4.7,10.5,10.5,10.5c4.4,0,8.1-2.7,9.7-6.5h23.7c1.5,3.8,5.3,6.5,9.7,6.5c5.8,0,10.5-4.7,10.5-10.5
	c0-3-1.2-5.6-3.2-7.5C62.8,17.9,64,15.2,64,12.3z M34,9.4c-0.6,0.4-1.2,0.6-2,0.6s-1.4-0.2-2-0.6c-0.9-0.6-1.5-1.7-1.5-2.9
	C28.5,4.5,30.1,3,32,3s3.5,1.6,3.5,3.5C35.5,7.7,34.9,8.7,34,9.4z"/>
<g>
	<path class="st1" d="M14.9,20.4v-0.6h0.4c0.1,0,0.2,0,0.2,0c0.1,0,0.1,0,0.2-0.1c0,0,0.1-0.1,0.1-0.2c0-0.1,0-0.2,0-0.4v-5
		c0-0.2,0-0.3,0-0.4c0-0.1-0.1-0.2-0.1-0.2c0,0-0.1-0.1-0.2-0.1c-0.1,0-0.1,0-0.2,0h-0.4v-0.6h3.6v0.6h-0.4c-0.1,0-0.1,0-0.2,0
		c-0.1,0-0.1,0-0.2,0.1c0,0-0.1,0.1-0.1,0.2c0,0.1,0,0.2,0,0.3v5.7h2c0.2,0,0.4-0.1,0.6-0.2c0.1-0.2,0.2-0.4,0.3-0.7l0.2-0.8h0.6
		l-0.1,2.4H14.9z"/>
	<path class="st1" d="M29.2,16.6c0,0.6-0.1,1.1-0.2,1.6s-0.4,0.9-0.7,1.2c-0.3,0.3-0.7,0.6-1.1,0.8s-0.9,0.3-1.5,0.3
		c-0.6,0-1.1-0.1-1.6-0.3c-0.4-0.2-0.8-0.4-1.1-0.8c-0.3-0.3-0.5-0.7-0.7-1.2c-0.1-0.5-0.2-1-0.2-1.6s0.1-1.1,0.2-1.6
		c0.1-0.5,0.4-0.9,0.7-1.2c0.3-0.3,0.7-0.6,1.1-0.8c0.4-0.2,1-0.3,1.6-0.3c0.6,0,1.1,0.1,1.5,0.3c0.4,0.2,0.8,0.4,1.1,0.8
		s0.5,0.7,0.7,1.2C29.1,15.5,29.2,16.1,29.2,16.6z M23.8,16.6c0,0.5,0,1,0.1,1.4c0.1,0.4,0.2,0.7,0.3,1c0.1,0.3,0.3,0.5,0.6,0.6
		c0.2,0.1,0.5,0.2,0.8,0.2c0.3,0,0.6-0.1,0.8-0.2c0.2-0.1,0.4-0.4,0.6-0.6c0.1-0.3,0.2-0.6,0.3-1s0.1-0.8,0.1-1.4s0-1-0.1-1.4
		s-0.2-0.7-0.3-1c-0.1-0.3-0.3-0.5-0.6-0.6c-0.2-0.1-0.5-0.2-0.8-0.2c-0.3,0-0.6,0.1-0.8,0.2c-0.2,0.1-0.4,0.4-0.6,0.6
		c-0.1,0.3-0.2,0.6-0.3,1C23.9,15.7,23.8,16.1,23.8,16.6z"/>
	<path class="st1" d="M31.2,20.4v-0.6h0.5c0.1,0,0.2,0,0.2,0s0.1,0,0.2-0.1c0.1,0,0.1-0.1,0.1-0.2s0-0.2,0-0.4v-1.5l-2-3.7
		c-0.1-0.1-0.1-0.2-0.1-0.3c0-0.1-0.1-0.1-0.2-0.2s-0.1-0.1-0.2-0.1c-0.1,0-0.2,0-0.3,0h-0.1v-0.6H33v0.6h-0.2c-0.2,0-0.4,0-0.5,0.1
		c-0.1,0.1-0.2,0.2-0.2,0.3c0,0.1,0,0.2,0,0.3c0,0.1,0.1,0.2,0.1,0.3l0.8,1.6c0.1,0.2,0.2,0.4,0.3,0.6c0.1,0.2,0.1,0.3,0.2,0.5
		c0.1-0.2,0.2-0.4,0.2-0.6c0.1-0.2,0.2-0.4,0.3-0.7l0.6-1.3c0.1-0.2,0.1-0.3,0.1-0.4c0-0.1,0-0.2,0-0.2c0-0.2-0.1-0.3-0.2-0.4
		c-0.1-0.1-0.3-0.1-0.5-0.1H34v-0.6h2.8v0.6h-0.2c-0.1,0-0.2,0-0.2,0c-0.1,0-0.1,0.1-0.2,0.1c-0.1,0.1-0.1,0.1-0.2,0.3
		c-0.1,0.1-0.1,0.2-0.2,0.4L34,17.8v1.4c0,0.2,0,0.3,0,0.4c0,0.1,0.1,0.2,0.1,0.2c0.1,0,0.1,0.1,0.2,0.1c0.1,0,0.1,0,0.2,0h0.5v0.6
		H31.2z"/>
	<path class="st1" d="M38.4,17.9L38,18.9c0,0.1-0.1,0.2-0.1,0.3c0,0.1,0,0.2,0,0.3c0,0.1,0,0.1,0,0.2c0,0.1,0.1,0.1,0.1,0.1
		s0.1,0.1,0.2,0.1s0.1,0,0.2,0h0.4v0.6h-2.7v-0.6h0.1c0.1,0,0.2,0,0.3,0c0.1,0,0.1-0.1,0.2-0.1s0.1-0.1,0.2-0.2
		c0.1-0.1,0.1-0.2,0.2-0.4l2.3-6.2h1.4l2.2,6.2c0.1,0.1,0.1,0.3,0.2,0.4c0.1,0.1,0.1,0.2,0.2,0.2s0.1,0.1,0.2,0.1c0.1,0,0.2,0,0.2,0
		H44v0.6h-3.5v-0.6h0.4c0.1,0,0.1,0,0.2,0c0.1,0,0.1,0,0.1-0.1c0,0,0.1-0.1,0.1-0.1c0-0.1,0-0.1,0-0.2c0-0.1,0-0.2,0-0.2
		c0-0.1,0-0.1-0.1-0.2l-0.4-1.1H38.4z M40.2,15.6c0-0.1-0.1-0.2-0.1-0.4c0-0.1-0.1-0.3-0.1-0.4c0-0.1-0.1-0.3-0.1-0.4
		s-0.1-0.3-0.1-0.4c0,0.1-0.1,0.2-0.1,0.4c0,0.1-0.1,0.3-0.1,0.4c0,0.1-0.1,0.3-0.1,0.4c0,0.1-0.1,0.3-0.1,0.4l-0.6,1.8h2.1
		L40.2,15.6z"/>
	<path class="st1" d="M44.3,20.4v-0.6h0.4c0.1,0,0.2,0,0.2,0s0.1,0,0.2-0.1c0,0,0.1-0.1,0.1-0.2c0-0.1,0-0.2,0-0.4v-5
		c0-0.2,0-0.3,0-0.4c0-0.1-0.1-0.2-0.1-0.2c0,0-0.1-0.1-0.2-0.1c-0.1,0-0.1,0-0.2,0h-0.4v-0.6h3.6v0.6h-0.4c-0.1,0-0.1,0-0.2,0
		c-0.1,0-0.1,0-0.2,0.1c0,0-0.1,0.1-0.1,0.2c0,0.1,0,0.2,0,0.3v5.7h2c0.2,0,0.4-0.1,0.6-0.2s0.2-0.4,0.3-0.7l0.2-0.8h0.6l-0.1,2.4
		H44.3z"/>
	<path class="st1" d="M18.3,27.1h0.3c0.1,0,0.1,0,0.1,0c0,0,0.1,0,0.1-0.1c0,0,0.1-0.1,0.1-0.1c0-0.1,0-0.1,0-0.2V23
		c0-0.1,0-0.2,0-0.2c0-0.1,0-0.1-0.1-0.1c0,0-0.1-0.1-0.1-0.1s-0.1,0-0.1,0h-0.3v-0.4h2.4c0.7,0,1.2,0.1,1.5,0.3
		c0.3,0.2,0.5,0.6,0.5,1c0,0.2,0,0.4-0.1,0.5s-0.1,0.3-0.2,0.4c-0.1,0.1-0.2,0.2-0.3,0.3c-0.1,0.1-0.2,0.1-0.4,0.2l0.9,1.5
		c0.1,0.1,0.1,0.2,0.2,0.3c0.1,0.1,0.1,0.1,0.2,0.2c0.1,0,0.1,0.1,0.2,0.1c0.1,0,0.1,0,0.2,0h0v0.4H23c-0.2,0-0.4,0-0.6,0
		c-0.2,0-0.3,0-0.4-0.1c-0.1,0-0.2-0.1-0.3-0.2c-0.1-0.1-0.2-0.2-0.2-0.3l-0.9-1.6h-0.5v1.5c0,0.1,0,0.2,0,0.2c0,0.1,0,0.1,0.1,0.1
		c0,0,0.1,0,0.1,0.1c0,0,0.1,0,0.1,0h0.3v0.4h-2.5V27.1z M20.1,24.8h0.4c0.2,0,0.3,0,0.4-0.1c0.1,0,0.2-0.1,0.3-0.2
		c0.1-0.1,0.1-0.2,0.1-0.3s0-0.3,0-0.5c0-0.2,0-0.3-0.1-0.5s-0.1-0.2-0.2-0.3c-0.1-0.1-0.2-0.1-0.3-0.2c-0.1,0-0.3-0.1-0.4-0.1h-0.4
		V24.8z"/>
	<path class="st1" d="M25.3,27h1.5c0.1,0,0.1,0,0.2,0s0.1-0.1,0.1-0.1c0-0.1,0.1-0.1,0.1-0.2c0-0.1,0-0.1,0.1-0.2l0.1-0.3h0.5
		l-0.1,1.4h-4.3v-0.4h0.3c0.1,0,0.1,0,0.1,0c0,0,0.1,0,0.1-0.1c0,0,0.1-0.1,0.1-0.1c0-0.1,0-0.1,0-0.2v-3.6c0-0.1,0-0.2,0-0.3
		c0-0.1,0-0.1-0.1-0.1c0,0-0.1-0.1-0.1-0.1s-0.1,0-0.2,0h-0.3v-0.4h4.1l0,1.4h-0.5l0-0.3c0-0.2-0.1-0.3-0.1-0.4
		c-0.1-0.1-0.2-0.1-0.3-0.1h-1.2v1.8h1.7v0.4h-1.7V27z"/>
	<path class="st1" d="M30,27.5c-0.3,0-0.6,0-0.8-0.1c-0.2-0.1-0.4-0.1-0.5-0.2c-0.1-0.1-0.2-0.2-0.3-0.3c-0.1-0.1-0.1-0.2-0.1-0.4
		c0-0.1,0-0.2,0.1-0.3c0-0.1,0.1-0.2,0.2-0.2c0.1-0.1,0.2-0.1,0.3-0.1c0.1,0,0.2,0,0.3,0c0,0.2,0,0.4,0.1,0.6s0.1,0.3,0.2,0.4
		c0.1,0.1,0.2,0.2,0.3,0.2c0.1,0.1,0.3,0.1,0.4,0.1c0.1,0,0.3,0,0.4-0.1c0.1,0,0.2-0.1,0.3-0.2s0.1-0.2,0.2-0.3
		c0-0.1,0.1-0.2,0.1-0.3c0-0.1,0-0.2-0.1-0.3c-0.1-0.1-0.1-0.2-0.2-0.3c-0.1-0.1-0.2-0.2-0.4-0.2c-0.2-0.1-0.3-0.2-0.5-0.2
		c-0.3-0.1-0.5-0.2-0.6-0.3c-0.2-0.1-0.3-0.2-0.4-0.4s-0.2-0.3-0.2-0.4c0-0.2-0.1-0.3-0.1-0.5c0-0.2,0-0.4,0.1-0.6
		c0.1-0.2,0.2-0.3,0.4-0.5c0.2-0.1,0.4-0.2,0.6-0.3c0.2-0.1,0.5-0.1,0.7-0.1c0.3,0,0.5,0,0.7,0.1s0.4,0.1,0.5,0.2
		c0.1,0.1,0.2,0.2,0.3,0.3c0.1,0.1,0.1,0.2,0.1,0.3c0,0.1,0,0.2-0.1,0.2s-0.1,0.1-0.2,0.2c-0.1,0.1-0.2,0.1-0.3,0.1s-0.2,0-0.4,0
		c0-0.1,0-0.2,0-0.3c0-0.1-0.1-0.2-0.1-0.3c-0.1-0.1-0.1-0.2-0.2-0.3c-0.1-0.1-0.2-0.1-0.4-0.1c-0.1,0-0.2,0-0.3,0
		c-0.1,0-0.2,0.1-0.2,0.1s-0.1,0.1-0.2,0.2c0,0.1-0.1,0.2-0.1,0.3c0,0.1,0,0.2,0.1,0.3c0,0.1,0.1,0.2,0.2,0.3s0.2,0.2,0.4,0.3
		c0.2,0.1,0.4,0.2,0.6,0.3c0.3,0.1,0.5,0.2,0.6,0.3c0.2,0.1,0.3,0.2,0.4,0.3c0.1,0.1,0.2,0.3,0.2,0.4c0.1,0.1,0.1,0.3,0.1,0.5
		c0,0.2,0,0.5-0.1,0.7c-0.1,0.2-0.2,0.4-0.4,0.5c-0.2,0.1-0.4,0.3-0.6,0.3C30.6,27.5,30.3,27.5,30,27.5z"/>
	<path class="st1" d="M35.5,26.9c0.2,0,0.3,0,0.5-0.1c0.1,0,0.3-0.1,0.4-0.2c0.1-0.1,0.2-0.1,0.3-0.2c0.1-0.1,0.2-0.2,0.2-0.2
		c0,0,0.1,0.1,0.1,0.1c0,0.1,0,0.1,0,0.2c0,0.1,0,0.2-0.1,0.3c-0.1,0.1-0.1,0.2-0.3,0.3c-0.1,0.1-0.3,0.2-0.5,0.2
		c-0.2,0.1-0.5,0.1-0.8,0.1c-0.4,0-0.8-0.1-1.1-0.2s-0.6-0.3-0.8-0.5c-0.2-0.2-0.4-0.5-0.5-0.9s-0.2-0.7-0.2-1.1
		c0-0.4,0.1-0.8,0.2-1.1c0.1-0.3,0.3-0.6,0.5-0.9c0.2-0.2,0.5-0.4,0.8-0.6c0.3-0.1,0.7-0.2,1.1-0.2c0.3,0,0.5,0,0.7,0.1
		c0.2,0,0.4,0.1,0.5,0.2s0.2,0.2,0.3,0.3C37,22.8,37,22.9,37,23c0,0.1,0,0.2-0.1,0.3s-0.1,0.1-0.2,0.2c-0.1,0.1-0.2,0.1-0.3,0.1
		s-0.2,0-0.4,0c0-0.1,0-0.2,0-0.4c0-0.1-0.1-0.2-0.1-0.3c-0.1-0.1-0.1-0.2-0.2-0.2s-0.2-0.1-0.4-0.1c-0.2,0-0.4,0-0.6,0.1
		c-0.2,0.1-0.3,0.2-0.4,0.4c-0.1,0.2-0.2,0.4-0.2,0.7c0,0.3-0.1,0.6-0.1,0.9c0,0.4,0,0.7,0.1,0.9c0.1,0.3,0.1,0.5,0.3,0.7
		c0.1,0.2,0.3,0.3,0.5,0.4C35,26.9,35.2,26.9,35.5,26.9z"/>
	<path class="st1" d="M42.7,22.6h-0.3c0,0-0.1,0-0.1,0c0,0-0.1,0-0.1,0.1c0,0-0.1,0.1-0.1,0.1s0,0.1,0,0.3v2.9c0,0.2,0,0.5-0.1,0.7
		s-0.2,0.4-0.3,0.5c-0.2,0.1-0.3,0.2-0.6,0.3c-0.2,0.1-0.5,0.1-0.8,0.1c-0.3,0-0.6,0-0.9-0.1c-0.3-0.1-0.5-0.2-0.6-0.3
		s-0.3-0.3-0.4-0.5s-0.1-0.5-0.1-0.8V23c0-0.1,0-0.2,0-0.2s0-0.1-0.1-0.1c0,0-0.1-0.1-0.1-0.1c0,0-0.1,0-0.1,0h-0.3v-0.4h2.5v0.4
		h-0.3c-0.1,0-0.1,0-0.1,0c0,0-0.1,0-0.1,0.1c0,0-0.1,0.1-0.1,0.1c0,0.1,0,0.1,0,0.3v2.8c0,0.2,0,0.4,0.1,0.5s0.1,0.3,0.2,0.3
		c0.1,0.1,0.2,0.1,0.3,0.2c0.1,0,0.3,0.1,0.5,0.1c0.2,0,0.3,0,0.4-0.1s0.2-0.1,0.3-0.2s0.2-0.2,0.2-0.3c0-0.1,0.1-0.3,0.1-0.5V23
		c0-0.1,0-0.2,0-0.2c0-0.1,0-0.1-0.1-0.1c0,0-0.1-0.1-0.1-0.1c0,0-0.1,0-0.1,0h-0.3v-0.4h1.9V22.6z"/>
	<path class="st1" d="M44.8,27h1.5c0.1,0,0.1,0,0.2,0s0.1-0.1,0.1-0.1s0.1-0.1,0.1-0.2c0-0.1,0-0.1,0.1-0.2l0.1-0.3h0.5l-0.1,1.4H43
		v-0.4h0.3c0.1,0,0.1,0,0.1,0c0,0,0.1,0,0.1-0.1c0,0,0.1-0.1,0.1-0.1c0-0.1,0-0.1,0-0.2v-3.6c0-0.1,0-0.2,0-0.3c0-0.1,0-0.1-0.1-0.1
		c0,0-0.1-0.1-0.1-0.1c0,0-0.1,0-0.2,0H43v-0.4h4.1l0,1.4h-0.5l0-0.3c0-0.2-0.1-0.3-0.1-0.4c-0.1-0.1-0.2-0.1-0.3-0.1h-1.2v1.8h1.7
		v0.4h-1.7V27z"/>
</g>
<g>
	<ellipse transform="matrix(0.6482 -0.7615 0.7615 0.6482 10.6438 46.8861)" class="st1" cx="56.1" cy="11.9" rx="1.4" ry="0.9"/>
	<ellipse transform="matrix(0.8321 -0.5546 0.5546 0.8321 1.5313 33.9122)" class="st1" cx="56.8" cy="14.4" rx="1.3" ry="0.8"/>
	<ellipse transform="matrix(0.3538 -0.9353 0.9353 0.3538 24.8674 57.2534)" class="st1" cx="53.9" cy="10.6" rx="1.4" ry="0.9"/>
	
		<ellipse transform="matrix(8.385914e-02 -0.9965 0.9965 8.385914e-02 35.8564 61.4228)" class="st1" cx="51.3" cy="11.2" rx="1.3" ry="0.8"/>
	<path class="st1" d="M52,16.3c-3.2-0.7-2.5-2.4-1.5-2.9c0.4-0.2,1-0.3,1.2-0.4c0.2,0,0.6-0.3,1-0.5c0.9-0.4,1.4,0,1.5,0
		c0,0,0.6,0.3,0.7,1.3c0,0.4,0,0.9,0.1,1.1c0.1,0.3,0.2,0.8,0.3,1.3C55.3,17.3,54.1,18.8,52,16.3z"/>
</g>
</svg>
