<?xml version="1.0" encoding="utf-8"?>
<!-- Generator: Adobe Illustrator 21.0.2, SVG Export Plug-In . SVG Version: 6.00 Build 0)  -->
<svg version="1.1" id="Layer_1" xmlns="http://www.w3.org/2000/svg" xmlns:xlink="http://www.w3.org/1999/xlink" x="0px" y="0px"
	 viewBox="0 0 32 19.3" style="enable-background:new 0 0 32 19.3;" xml:space="preserve">
<style type="text/css">
	.st0{fill:#423957;}
	.st1{fill:none;}
	.st2{fill:#FFFFFF;}
	.st3{font-family:'DroidSerif-Bold';}
	.st4{font-size:5.3069px;}
</style>
<path class="st0" d="M32,6.4c0-2.9-2.4-5.3-5.3-5.3c-2.4,0-4.4,1.6-5,3.8h-2.2c0.1-0.3,0.1-0.6,0.1-1c0-2.1-1.7-3.7-3.7-3.7
	S12.2,1.9,12.2,4c0,0.3,0,0.7,0.1,1h-2.2c-0.6-2.2-2.7-3.8-5-3.8c-2.9,0-5.3,2.4-5.3,5.3c0,1.5,0.6,2.8,1.6,3.8
	c-1,1-1.6,2.3-1.6,3.8c0,2.9,2.4,5.3,5.3,5.3c2.2,0,4.1-1.4,4.9-3.3h11.9c0.8,1.9,2.7,3.3,4.9,3.3c2.9,0,5.3-2.4,5.3-5.3
	c0-1.5-0.6-2.8-1.6-3.8C31.4,9.3,32,7.9,32,6.4z M16.9,5c-0.3,0.2-0.6,0.3-1,0.3c-0.4,0-0.7-0.1-1-0.3c-0.5-0.3-0.8-0.8-0.8-1.5
	c0-1,0.8-1.8,1.8-1.8s1.8,0.8,1.8,1.8C17.7,4.1,17.4,4.6,16.9,5z"/>
<rect x="7.2" y="6.5" class="st1" width="18.3" height="8.6"/>
<text transform="matrix(1 0 0 1 8.6626 10.5285)"><tspan x="0" y="0" class="st2 st3 st4">LOYA</tspan><tspan x="5.9" y="3.5" class="st2 st3 st4">L </tspan></text>
<g>
	<ellipse transform="matrix(0.6482 -0.7615 0.7615 0.6482 5.0922 23.5283)" class="st2" cx="28" cy="6.3" rx="0.7" ry="0.4"/>
	<ellipse transform="matrix(0.8321 -0.5546 0.5546 0.8321 0.5967 16.9948)" class="st2" cx="28.4" cy="7.5" rx="0.6" ry="0.4"/>
	<ellipse transform="matrix(0.3538 -0.9353 0.9353 0.3538 12.1461 28.7855)" class="st2" cx="26.9" cy="5.6" rx="0.7" ry="0.4"/>
	
		<ellipse transform="matrix(8.385914e-02 -0.9965 0.9965 8.385914e-02 17.607 30.9404)" class="st2" cx="25.6" cy="5.9" rx="0.6" ry="0.4"/>
	<path class="st2" d="M26,8.5c-1.6-0.4-1.3-1.2-0.7-1.5c0.2-0.1,0.5-0.2,0.6-0.2c0.1,0,0.3-0.2,0.5-0.2c0.5-0.2,0.7,0,0.7,0
		c0,0,0.3,0.1,0.4,0.6c0,0.2,0,0.4,0,0.5c0,0.1,0.1,0.4,0.1,0.6C27.6,9,27,9.7,26,8.5z"/>
</g>
</svg>
