<?xml version="1.0" encoding="utf-8"?>
<!-- Generator: Adobe Illustrator 21.0.2, SVG Export Plug-In . SVG Version: 6.00 Build 0)  -->
<svg version="1.1" id="Layer_1" xmlns="http://www.w3.org/2000/svg" xmlns:xlink="http://www.w3.org/1999/xlink" x="0px" y="0px"
	 viewBox="0 0 16 16" style="enable-background:new 0 0 16 16;" xml:space="preserve">
<style type="text/css">
	.st0{fill:#423957;}
</style>
<path class="st0" d="M16,6c0-1.4-1.2-2.6-2.6-2.6c-1.2,0-2.2,0.8-2.5,1.9H9.8c0-0.2,0.1-0.3,0.1-0.5c0-1-0.8-1.8-1.8-1.8
	S6.2,3.8,6.2,4.8c0,0.2,0,0.3,0.1,0.5H5.1C4.8,4.2,3.8,3.4,2.6,3.4C1.2,3.4,0,4.6,0,6c0,0.7,0.3,1.4,0.8,1.9C0.3,8.4,0,9,0,9.8
	c0,1.4,1.2,2.6,2.6,2.6c1.1,0,2-0.7,2.4-1.6H11c0.4,1,1.3,1.6,2.4,1.6c1.4,0,2.6-1.2,2.6-2.6c0-0.7-0.3-1.4-0.8-1.9
	C15.7,7.4,16,6.7,16,6z M8.5,5.3C8.4,5.4,8.2,5.4,8,5.4S7.6,5.4,7.5,5.3C7.3,5.1,7.1,4.8,7.1,4.5c0-0.5,0.4-0.9,0.9-0.9
	s0.9,0.4,0.9,0.9C8.9,4.8,8.7,5.1,8.5,5.3z"/>
</svg>
