<svg xmlns="http://www.w3.org/2000/svg" id="Layer_1" viewBox="0 0 32 19.3"><style>.st0{fill:#423957}.st1{fill:#fff}</style><path d="M32 6.4c0-2.9-2.4-5.3-5.3-5.3-2.4 0-4.4 1.6-5 3.8h-2.2c.1-.3.1-.6.1-1 0-2.1-1.7-3.7-3.7-3.7S12.2 1.9 12.2 4c0 .3 0 .7.1 1h-2.2c-.6-2.2-2.7-3.8-5-3.8-2.9 0-5.3 2.4-5.3 5.3 0 1.5.6 2.8 1.6 3.8-1 1-1.6 2.3-1.6 3.8 0 2.9 2.4 5.3 5.3 5.3 2.2 0 4.1-1.4 4.9-3.3h11.9c.8 1.9 2.7 3.3 4.9 3.3 2.9 0 5.3-2.4 5.3-5.3 0-1.5-.6-2.8-1.6-3.8.9-1 1.5-2.4 1.5-3.9zM16.9 5c-.3.2-.6.3-1 .3s-.7-.1-1-.3c-.5-.3-.8-.8-.8-1.5 0-1 .8-1.8 1.8-1.8s1.8.8 1.8 1.8c0 .6-.3 1.1-.8 1.5z" class="st0"/><path d="M7.3 10.5v-.3h.4s0-.1.1-.1V7.2s0-.1-.1-.1h-.1s0-.1-.1-.1h-.2v-.3h1.8V7h-.4s0 .1-.1.1v3.1h1c.1 0 .2 0 .3-.1.1-.1.1-.2.2-.4l.1-.4h.3v1.2H7.3zm7.2-1.9c0 .3 0 .6-.1.8-.1.3-.2.5-.4.6-.2.2-.3.3-.6.4-.2.1-.5.1-.8.1-.3 0-.6 0-.8-.1-.2-.1-.4-.2-.6-.4-.1-.2-.3-.4-.3-.6-.1-.2-.1-.5-.1-.8 0-.3 0-.6.1-.8l.3-.6c.1-.2.3-.3.6-.4.2-.1.5-.1.8-.1.3 0 .5 0 .8.1.3.1.5.2.6.4.2.2.3.4.3.6s.2.5.2.8zm-2.7 0v.7c0 .2.1.4.2.5l.3.3c.1.1.3.1.4.1.2 0 .3 0 .4-.1l.3-.3c.1-.1.1-.3.2-.5V7.9c0-.2-.1-.4-.2-.5l-.3-.3c-.1 0-.2-.1-.4-.1s-.3 0-.4.1l-.3.3c-.1.1-.1.3-.2.5s0 .5 0 .7zm3.7 1.9v-.3h.4s0-.1.1-.1v-.9l-1-1.9c0-.1-.1-.1-.1-.1s0-.1-.1-.1h-.3v-.4h1.8V7h-.1c-.1 0-.2 0-.2.1v.3c0 .1 0 .1.1.1l.4.8c.1.1.1.2.1.3 0 .1.1.2.1.3 0-.1.1-.2.1-.3 0-.1.1-.2.2-.3l.3-.6c0-.1.1-.1.1-.2v-.1c0-.1 0-.2-.1-.2 0-.2-.1-.2-.2-.2H17v-.3h1.4V7h-.2s-.1 0-.1.1l-.1.1c0 .1-.1.1-.1.2L17 9.2v.9s0 .1.1.1h.5v.3h-2.1zm3.6-1.2l-.1.4v.5l.1.1h.4v.3H18v-.3h.1s.1 0 .1-.1l.1-.1c0-.1.1-.1.1-.2l1.2-3.1h.7l1.1 3.1c0 .1.1.1.1.2s.1.1.1.1.1 0 .1.1h.2v.3h-1.8v-.3h.4l.1-.1v-.3l-.2-.5h-1.3zm.9-1.2v-.2c0-.1 0-.1-.1-.2 0-.1 0-.1-.1-.2v-.2c0 .1 0 .1-.1.2 0 .1 0 .1-.1.2s0 .1-.1.2 0 .1-.1.2l-.2.9h1.1l-.3-.9zm2.1 2.4v-.3h.4s0-.1.1-.1 0-.1 0-.2V7.2c0-.1 0-.1-.1-.1h-.4v-.4h1.8V7h-.4s0 .1-.1.1v3.1h1c.1 0 .2 0 .3-.1.1-.1.1-.2.1-.3l.1-.4h.3v1.2h-3.1zM9 13.9h.4v-2.2H9v-.2h1.2c.3 0 .6.1.8.2s.2.3.2.5v.3c0 .1-.1.1-.1.2s-.1.1-.2.1-.1.1-.2.1l.4.8c0 .1.1.1.1.1l.1.1s.1 0 .1.1h.1v.2h-.6c-.1 0-.1-.1-.2-.1 0 0-.1-.1-.1-.2l-.4-.8h-.3v.9h.4v.2H9v-.3zm.9-1.2h.4l.1-.1s.1-.1.1-.2V12c0-.1 0-.1-.1-.2l-.1-.1h-.4v1zm2.6 1.1h.8l.1-.1v-.4h.3v.7h-2.2v-.2h.4v-2.2h-.4v-.2h2.1v.7h-.3v-.2c0-.1 0-.2-.1-.2 0 0-.1-.1-.2-.1h-.6v.9h.9v.2h-.9v1.1zm2.4.3h-.4c-.1 0-.2-.1-.3-.1s-.1-.1-.1-.2v-.4c0-.1.1-.1.1-.1s.1 0 .1-.1h.2v.3c0 .1.1.1.1.2s.1.1.2.1h.4c.1 0 .1 0 .1-.1s.1-.1.1-.1v-.4l-.1-.1s-.1-.1-.2-.1-.2-.1-.3-.1c-.1-.1-.2-.1-.3-.2-.1-.1-.2-.1-.2-.2s-.1-.1-.1-.2v-.2c0-.1 0-.2.1-.3 0-.1.1-.2.2-.2s.2-.1.3-.1c.1 0 .2-.1.4-.1h.4c.1 0 .2.1.2.1.1 0 .1.1.1.1v.3s0 .1-.1.1c0 0-.1 0-.1.1s-.1 0-.2 0v-.2c0-.1 0-.1-.1-.2 0-.1-.1-.1-.1-.1-.1 0-.1-.1-.2-.1H15s-.1 0-.1.1l-.1.1v.2s0 .1.1.1c0 0 .1.1.2.1s.2.1.3.1c.1.1.2.1.3.2.1.1.2.1.2.2.1.1.1.1.1.2v.2c0 .1 0 .2-.1.3 0 .1-.1.2-.2.3-.1.1-.2.1-.3.2-.2.3-.3.3-.5.3zm2.8-.3h.2c.1 0 .1 0 .2-.1l.1-.1.1-.1v.4c0 .1-.1.1-.1.2-.1 0-.2.1-.3.1h-.4c-.2 0-.4 0-.6-.1s-.3-.2-.4-.3-.2-.3-.2-.4c-.1-.2-.1-.4-.1-.6 0-.2 0-.4.1-.5.1-.2.1-.3.2-.4s.2-.2.4-.3c.2-.1.3-.1.6-.1h.4c.1 0 .2.1.3.1.1 0 .1.1.2.1 0 .1.1.1.1.2v.1s0 .1-.1.1-.1.1-.1.1h-.2V12c0-.1 0-.1-.1-.2l-.1-.1h-.2c-.1 0-.2 0-.3.1-.1 0-.1.1-.2.2s-.2.1-.2.3v1c0 .1.1.2.1.3.1.1.1.2.2.2h.4zm3.6-2.2h-.4c-.1 0 0 0 0 .1v1.5c0 .1 0 .2-.1.3 0 .1-.1.2-.2.3 0 .2-.1.2-.2.2s-.3.1-.4.1h-.4c-.1 0-.2-.1-.3-.1s-.2-.2-.2-.3c0-.1-.1-.2-.1-.4v-1.6h-.4v-.2h1.3v.2h-.4c-.1 0 0 0 0 .1v1.8c0 .1.1.1.1.2 0 0 .1.1.2.1h.4s.1-.1.2-.1c0 0 .1-.1.1-.2v-1.9h-.4v-.2h1v.1zm1.1 2.2h.8l.1-.1c.1-.1 0-.1 0-.1v-.3h.3v.7h-2.2v-.2h.4c.1 0 0 0 0-.1v-2.1h-.4v-.2h2.1v.7h-.3v-.2c0-.1 0-.2-.1-.2 0 0-.1-.1-.2-.1h-.6v.9h.9v.2h-.9v1.1z" class="st1"/><ellipse cx="28" cy="6.3" class="st1" rx=".7" ry=".4" transform="rotate(-49.594 28.009 6.253)"/><ellipse cx="28.4" cy="7.5" class="st1" rx=".6" ry=".4" transform="rotate(-33.685 28.369 7.513)"/><ellipse cx="26.9" cy="5.6" class="st1" rx=".7" ry=".4" transform="rotate(-69.28 26.906 5.603)"/><ellipse cx="25.6" cy="5.9" class="st1" rx=".6" ry=".4" transform="rotate(-85.19 25.63 5.895) scale(1.00002)"/><path d="M26 8.5c-1.6-.4-1.3-1.2-.7-1.5.2-.1.5-.2.6-.2.1 0 .3-.2.5-.2.5-.2.7 0 .7 0s.3.1.4.6v.5c0 .1.1.4.1.6 0 .7-.6 1.4-1.6.2z" class="st1"/></svg>